<svg width="103" height="253" viewBox="0 0 103 253" fill="none" xmlns="http://www.w3.org/2000/svg">
<path d="M46.9412 252.29C47.6912 249.44 45.0812 246.56 47.0612 243.74C48.1712 239.78 47.5712 235.73 47.4812 231.74C47.4212 228.62 48.2612 226.25 50.7212 224.39C53.3912 223.34 56.0912 222.41 59.0312 222.86C61.2812 225.23 61.1612 227.66 59.1812 230.15C54.9812 227.96 53.0012 229.07 52.6412 233.96C52.1912 240.11 50.5712 246.23 53.0612 252.29C50.9912 252.29 48.9512 252.29 46.9412 252.29Z" fill="#A6A6A6"/>
<path d="M59.1781 230.15C58.7881 227.78 60.0181 225.14 57.9481 223.07C56.7781 218.15 60.4081 218.99 63.0781 218.75C62.3581 217.64 61.4281 219.11 60.6781 218.51C57.2881 215.9 53.0581 213.89 53.8081 208.49C54.6781 207.11 55.9681 206.57 57.5581 206.66C60.1681 209.93 63.8881 209.87 67.5781 209.93C69.8281 211.04 72.4381 211.01 74.6881 212.12C78.2281 214.1 82.5181 212.15 86.0281 214.31C90.1981 216.62 94.2781 219.17 99.4681 218.18C100.548 217.97 102.648 217.43 102.648 219.65C102.648 220.85 101.388 221.63 100.038 221.69C96.198 221.9 93.1681 224.45 89.5981 225.44C87.4681 223.64 85.3081 221.87 82.6981 220.82C80.8381 220.07 79.0681 220.31 78.1981 222.35C77.2381 224.66 78.4681 225.68 80.6581 225.92C82.6081 226.13 84.0481 227 84.5881 229.01C78.2881 228.41 71.7781 231.65 65.7481 228.74C62.6281 227.33 61.6381 231.35 59.1781 230.15Z" fill="#969696"/>
<path d="M59.0923 82.8501C59.1823 83.9301 59.2423 85.0102 59.3323 86.0902C64.3123 88.8202 63.1123 94.7002 65.6623 98.7502C66.5623 100.16 64.6423 101.51 62.8423 101.81C60.8323 101.6 60.0223 100.04 59.2423 98.4802C58.7023 96.9202 57.9823 95.5102 56.5723 94.5502C53.6323 92.3902 51.6523 92.8101 51.2623 96.6801C50.9923 99.2901 51.2023 101.78 52.5223 104.27C54.2623 107.63 54.4423 111.23 52.3123 114.62C51.6523 115.19 50.8723 115.37 50.0023 115.34C47.6923 114.65 45.2923 116.27 43.0123 115.07C39.6523 111.71 41.2723 107.99 42.2623 104.33C42.8923 101.93 44.8423 99.3202 40.7323 98.1502C35.4223 98.1802 37.5223 92.7801 35.1523 90.6201C37.2823 85.0701 35.5423 79.2202 36.4123 73.5502C39.2323 71.5702 39.7424 74.1201 40.5524 75.7701C42.2024 79.0401 41.9923 82.7601 42.9523 86.6901C42.8923 86.9901 44.1223 86.8702 43.3123 86.7502C43.1323 86.7202 43.0124 86.4501 43.2224 86.1801C45.8024 83.0601 47.4523 79.2202 50.5123 76.4602C51.8623 78.8302 50.6923 81.9202 52.7323 84.2602C51.6223 81.5602 50.1823 79.0102 51.9823 76.1602C53.4523 75.4102 54.7724 75.5602 55.8824 76.8802C57.3824 78.6502 57.2023 81.3201 59.0923 82.8501Z" fill="#888989"/>
<path d="M23.7786 152.33C23.4186 149.87 30.0186 145.61 21.7386 144.98C20.7486 144.89 21.3786 140.93 22.5486 138.95C24.2586 135.98 26.9586 134.12 29.8386 132.5C32.5086 133.43 34.5786 135.62 37.3986 136.28C39.0186 139.01 36.1986 142.19 38.4486 145.16C40.8786 142.97 42.1086 136.13 46.8786 142.58C48.2886 144.17 49.8786 145.52 52.0386 145.94C55.3986 146.27 58.3686 147.35 60.4686 150.14C61.3986 151.13 62.3586 152.12 63.0486 153.32C63.2286 153.86 63.2586 154.4 63.1986 154.97C59.8386 161.09 57.1686 155.36 54.2286 154.49C54.2586 155.72 55.4886 156.41 55.7586 157.55C55.8786 159.23 55.1286 160.7 54.6786 162.26C54.2286 163.01 53.6286 163.55 52.7886 163.82C52.2186 163.88 51.6786 163.79 51.1386 163.58C49.4886 162.29 46.7886 161.69 47.9286 158.6C48.6786 157.58 48.6786 156.41 48.7086 155.24C48.6186 156.5 48.6486 157.76 47.7486 158.81C46.7286 159.59 45.6786 159.53 44.5686 159.02C43.2186 153.8 38.5086 152.6 34.4886 150.56C33.1686 149.6 32.6886 148.01 31.5186 146.9C29.0286 148.85 28.0986 153.05 23.7786 152.33Z" fill="#989798"/>
<path d="M62.723 153.47C61.193 153.44 60.4129 152.66 60.3529 151.13C59.2129 150.17 59.1229 148.7 58.5229 147.5C57.6529 145.73 56.873 143.54 54.653 143.48C52.313 143.42 53.5429 146.6 51.8629 147.44C49.0129 147.41 47.363 145.43 45.563 143.66C45.173 142.37 46.1029 141.65 46.7929 140.84C48.7729 138.86 49.643 136.73 47.663 134.24C48.653 131.18 50.663 129.62 53.963 130.01C55.613 130.46 56.723 129.11 58.133 128.75C61.793 129.8 58.763 126.8 59.663 126.2C60.323 124.07 60.9829 121.94 62.5429 120.26C67.7929 120.26 66.0829 124.94 67.4329 127.55C67.4029 128.33 67.1329 129.08 66.9229 129.86C66.4729 131.48 64.7029 133.28 66.2629 134.78C68.0329 136.46 69.263 133.73 70.913 133.46C71.513 133.37 72.0529 133.52 72.5029 133.97C72.5029 134.75 72.5029 135.53 72.5029 136.31C75.6829 139.37 74.483 142.94 73.223 146.18C72.353 148.4 70.433 150.14 67.553 148.67C67.103 148.01 66.893 147.32 66.983 146.48C67.103 145.55 68.5129 143.99 66.2029 143.96C64.4329 143.96 64.853 145.52 64.913 146.6C64.973 147.77 65.303 148.94 65.213 150.11C65.063 151.73 64.463 153.05 62.723 153.47Z" fill="#8D8D8D"/>
<path d="M44.4233 10.8201C43.8533 7.58008 42.1133 4.37008 44.0333 0.830078C47.6033 2.75008 50.0033 5.84009 50.0333 9.44009C50.1833 23.5701 56.3633 36.2901 59.0633 49.7901C59.2133 50.5701 59.2433 51.4101 59.3333 52.2201C59.3033 56.0001 56.8133 57.2601 53.6033 57.7401C51.6233 57.4101 52.1633 54.2901 49.8533 54.3201C48.0533 55.9701 50.1833 58.3401 48.8033 60.0201C47.4533 62.1501 45.6833 63.6501 43.0433 63.8001C42.0533 63.5301 41.5433 62.8701 41.3633 61.9101C42.1133 57.8901 44.3033 54.1701 43.9433 49.9101C43.8833 47.2701 42.6533 44.4801 44.9633 42.1401C47.3333 39.8601 49.3733 41.9901 52.0133 43.2501C50.3633 31.2201 47.2733 20.1201 46.4033 8.81007C45.9833 9.56007 46.6733 11.6001 44.4233 10.8201Z" fill="#ACACAC"/>
<path d="M88.2196 185.48C85.5196 189.95 86.8995 193.37 90.9195 196.16C91.3395 197.57 90.3795 198.14 89.3595 197.96C86.8395 197.54 84.2895 196.58 82.6695 199.64C80.3295 199.61 78.4995 197.99 76.3395 197.48C75.0795 196.94 73.7295 196.64 72.4095 196.28C71.8695 196.13 71.3896 195.92 70.8796 195.68C70.3996 195.56 69.6495 194.96 69.4395 195.41C69.0795 196.1 70.0696 196.55 70.3096 197.21C70.7896 199.19 68.8395 199.88 68.1795 201.23C67.5795 202.43 67.0396 203.72 65.3896 203.81C64.9096 203.54 64.4895 203.18 64.1895 202.73C63.5595 201.23 62.6895 199.82 61.9095 198.38C61.1295 194.54 62.7196 191.09 63.7096 187.52C64.3996 186.92 65.2095 186.68 66.1095 186.65C68.8995 188.66 71.9895 182.03 74.6895 186.95C75.3795 183.32 78.0795 181.82 81.1995 180.74C84.8295 180.44 86.5696 182.9 88.2196 185.48Z" fill="#A5A4A4"/>
<path d="M44.4223 10.8202C46.6123 9.50015 45.6223 7.37014 45.8323 5.39014C48.8323 15.8601 51.6223 26.2402 52.1623 37.0702C52.2523 38.7202 53.1223 39.6501 54.0523 40.6701C55.7323 42.5601 54.8623 44.0301 53.2423 45.2601C51.3523 46.7001 49.8823 46.4001 49.1623 43.9701C48.5623 41.9601 47.5723 41.1502 45.8323 42.9802C43.3423 41.0002 44.4223 38.2102 44.1223 35.6902C43.8523 33.6802 44.6323 30.9501 41.2423 30.7101C41.0323 30.5601 40.8223 30.3802 40.6423 30.2302C38.3623 25.0402 44.0023 21.5902 43.6123 16.7302C43.4323 14.8102 44.1223 12.8002 44.4223 10.8202Z" fill="#6D6C6C"/>
<path d="M66.4414 199.88C67.6714 199.1 68.9314 198.32 70.1614 197.51C70.0714 196.4 70.4014 195.53 71.4814 195.08C71.7514 195.11 72.0214 195.08 72.2914 195.02C74.6014 196.49 75.4714 198.65 75.2314 201.29C75.2014 203.27 73.3114 205.1 74.7514 207.2C75.6214 209.03 76.7014 209.87 78.4114 208.01C85.3414 208.73 80.9914 204.68 80.7814 202.37C84.5914 202.43 81.0214 199.55 82.3114 198.59C84.0514 193.82 88.4014 198.23 90.8914 196.13C93.1714 197.6 96.5314 197.54 97.9114 201.32C94.0114 201.5 90.6214 196.31 86.6614 200.6C89.9614 205.1 98.0914 205.94 97.2814 214.22C94.7014 212.96 92.2114 211.82 89.8414 210.5C88.4614 209.72 87.2014 209.48 85.9114 210.53C84.3814 211.79 85.3414 213.08 86.0014 214.31C81.8314 214.76 77.5414 216.17 73.6414 213.32C72.8014 211.1 70.0714 210.59 69.1114 208.43C67.2214 205.91 68.5714 202.34 66.4414 199.88Z" fill="#C1C1C1"/>
<path d="M34.7622 149.81C37.1922 149.45 39.4422 150.65 41.9022 150.77C45.4722 150.98 44.0322 155.6 44.5722 158.42C45.9222 160.19 47.3322 161.96 44.9022 163.97C38.6922 162.65 32.7222 161.93 27.4122 166.97C26.1522 168.14 23.2122 168.2 21.0522 167.09C20.8422 164.84 17.1522 163.79 18.9522 160.88C20.0922 158.81 21.2022 156.74 22.3422 154.67C24.7722 151.97 26.3622 154.16 27.5922 155.84C29.0022 157.79 29.8122 157.46 31.7322 156.35C34.6722 154.61 31.7622 154.58 31.4322 153.62C30.5022 150.86 31.9422 149.57 34.7622 149.81Z" fill="#707070"/>
<path d="M29.8708 230.36C28.2508 230.39 26.6608 230.39 25.0408 230.42C21.5008 230.45 17.5108 228.83 15.2008 233.21C12.6808 233.87 9.98084 232.7 7.46084 233.96C6.26084 234.56 5.12084 234.29 4.25084 233.18C3.23084 231.89 3.29085 230.36 4.28085 229.28C6.32085 227.06 6.95084 223.85 9.50084 222.02C11.0908 221.72 12.2008 220.79 12.9208 219.38C15.1708 219.11 15.3808 220.91 15.9508 222.29C20.5108 221.27 21.0808 220.61 19.2208 217.31C17.3908 214.07 17.2708 211.79 21.3508 210.59C22.7908 210.29 24.2308 210.32 25.6708 210.23C27.1108 209.93 28.5508 209.6 29.9308 210.5C31.8808 213.56 28.6408 215 27.8608 217.19C29.4508 220.91 29.2709 224.99 30.3209 228.83C30.4109 229.43 30.2608 229.91 29.8708 230.36Z" fill="#8F8F8F"/>
<path d="M6.65234 207.14C8.27234 204.83 11.2423 202.49 11.1823 200.21C11.0323 194.39 9.47233 188.72 15.0523 184.25C15.8623 183.62 14.7223 181.61 13.7623 180.5C14.3023 179.66 15.1123 179.27 16.0723 179.12C16.9723 179.06 17.8123 179.24 18.5923 179.69C19.6723 180.77 19.6423 182.99 21.8623 182.96L25.6423 193.91C24.7123 196.64 22.3723 197.9 20.1523 199.28C16.7323 198.65 14.8423 199.49 14.2123 203.48C13.5223 207.5 11.1223 209.93 6.65234 207.14Z" fill="#B3B2B2"/>
<path d="M55.5226 77.9599C54.5926 76.6099 53.1226 76.8199 51.7726 76.6699C50.9926 76.3399 50.2727 75.9799 49.9727 75.0799C49.5827 73.1899 49.3126 71.2699 49.6126 69.3199C49.7626 68.7799 50.0027 68.2699 50.3027 67.8199C52.0727 65.0299 52.3126 61.5499 54.9526 59.0599C59.3326 54.9199 61.3427 55.1899 63.8927 60.9499C64.4027 62.5699 64.9426 64.1599 65.4526 65.7799C66.0526 67.0399 65.9326 68.2999 64.4926 68.6599C62.0326 69.2299 60.9226 67.4599 59.8726 65.2699C60.8926 67.8499 62.3927 70.2199 59.3027 72.0499C58.2227 73.4599 54.3526 73.3399 56.7826 76.6699C57.2026 77.8699 56.5726 78.1099 55.5226 77.9599Z" fill="#A1A1A1"/>
<path d="M66.5587 127.88C65.2987 125.48 64.0387 123.08 62.7487 120.68C58.5787 116.27 58.9987 110.45 58.0987 105.05C57.9187 103.94 58.3087 102.65 57.7687 101.51C57.5287 99.5303 56.7487 97.2203 60.2287 97.6403C61.0087 98.8403 61.7887 100.07 62.5987 101.27C64.9987 102.53 67.4587 103.76 67.1887 107.12C65.6587 110.39 64.7587 113.63 67.6087 116.69C68.9887 118.19 67.6087 120.32 68.8387 121.85C69.2587 123.47 69.6487 125.09 70.0687 126.71C69.1087 127.79 68.1487 128.78 66.5587 127.88Z" fill="#B6B5B5"/>
<path d="M34.7593 149.81C33.5593 150.53 32.2693 151.19 31.9393 152.72C33.4093 155.3 35.5693 149.81 36.7093 153.14C37.6993 156.02 34.9693 156.23 33.2593 157.1C32.5693 157.46 31.7293 157.76 31.2493 158.33C29.2093 160.85 27.4093 162.95 27.3793 157.4C25.0393 157.67 25.3693 153.02 22.2793 154.64C22.7593 153.86 23.2393 153.08 23.7193 152.3C26.9293 150.5 28.9093 147.44 31.1893 144.5C33.1693 145.94 34.4593 147.56 34.7593 149.81Z" fill="#868686"/>
<path d="M84.5892 229.07C83.1792 228.47 82.2192 227.03 80.2692 227.54C78.0792 228.11 75.2892 228.2 75.5592 224.93C75.7992 221.84 76.5492 217.76 80.8392 218.39C84.7392 218.96 88.3992 221.03 89.6292 225.5C87.9192 226.67 86.2692 227.87 84.5892 229.07Z" fill="#818181"/>
<path d="M9.50083 222.02C9.56083 225.14 8.90082 227.84 5.81082 229.46C4.76082 230.03 4.10084 231.35 5.03084 232.52C6.20084 234.02 7.07082 232.85 7.76082 231.89C10.7608 227.63 12.4408 235.1 15.2008 232.7C16.1008 232.07 16.9408 232.16 17.7208 232.85C13.1308 235.16 7.58084 234.65 3.32084 238.01C1.79084 239.21 0.980832 237.92 0.620832 236.24C-0.609168 230.3 3.29083 223.97 9.50083 222.02Z" fill="#DBDBDA"/>
<path d="M87.3793 175.49C85.4293 173.99 80.9893 176.78 81.0793 171.8C80.7793 167.9 78.6793 164.6 76.9093 161.36C74.8693 157.61 74.0893 153.86 74.5393 149.72C74.6293 148.34 75.0193 147.14 76.1893 146.24C78.5893 154.76 83.0593 162.32 86.9893 170.12C87.7093 171.62 87.2893 173.69 87.3793 175.49Z" fill="#C2C2C2"/>
<path d="M63.86 60.92C62.3 59.6 61.3101 55.94 58.9701 57.71C56.4201 59.66 52.4 61.67 53.36 65.93C54.11 69.29 53.6 69.74 50.78 68.06C48.29 65.78 46.22 63.38 48.11 59.72C47.81 57.62 47 55.43 47.36 53.45C47.75 51.23 48.95 51.5 49.52 53.63C51.47 54.2 52.1301 55.61 52.4601 57.53C52.6701 58.73 52.85 56.84 53.27 57.29C55.28 55.58 57.2901 53.87 59.3001 52.16C60.8601 55.1 64.58 56.84 63.86 60.92Z" fill="#BDBCBC"/>
<path d="M51.8595 224.21C45.8895 229.64 49.6695 237.5 47.0295 243.77C47.0295 240.53 46.8796 237.26 47.0596 234.05C47.2696 230.36 45.9196 228.2 42.0496 227.99C39.3796 229.04 37.7895 227.84 36.7695 225.44C38.4795 220.49 43.6095 221.42 47.0895 219.47C52.8195 219.5 53.6295 220.31 51.8595 224.21Z" fill="#B7B7B7"/>
<path d="M37.4288 72.9201C36.4088 79.0401 37.5188 85.3101 35.9288 91.3701C37.2488 92.9601 36.3488 94.1001 35.1488 95.1801C33.7388 95.6901 32.8688 95.0601 32.2988 93.8001C32.5088 92.6301 32.2988 91.1301 32.9588 90.3201C36.6488 85.6401 36.7388 80.1801 34.4588 75.5001C31.0088 68.4501 33.1088 62.3601 35.6888 56.0001C35.9288 56.1501 36.1988 56.3301 36.4388 56.4801C37.9388 60.2901 37.1588 64.5801 39.2888 68.3301C40.1588 69.8301 39.1388 71.8401 37.4288 72.9201Z" fill="#9E9E9E"/>
<path d="M76.1614 146.27C76.1614 147.47 76.1914 148.7 76.1914 149.9C74.6314 151.91 72.8314 153.41 70.0114 152.48C72.1714 154.19 73.0114 156.17 71.2114 158.63C69.6514 158.21 68.0914 157.79 66.5314 157.37C63.5914 157.79 63.5614 155.3 62.7814 153.59C62.7814 153.59 62.7214 153.47 62.6914 153.47C63.1714 152.24 63.6214 150.98 64.1014 149.75C65.2414 148.94 65.4214 146.72 67.5814 147.38C72.5914 149.18 72.4114 144.68 73.4914 142.19C74.3014 140.3 73.4014 138.23 72.5314 136.34C77.1814 138.41 73.3414 143.54 76.1614 146.27Z" fill="#989798"/>
<path d="M6.6536 207.14C9.9236 207.26 12.5036 206.84 13.0436 202.61C13.9736 195.53 14.1836 195.56 20.1236 198.68C20.8136 199.34 20.9636 200.18 20.8136 201.08C18.8636 204.92 16.5236 208.46 12.7436 210.77C12.3236 211.16 11.9036 211.52 11.4836 211.91C10.8836 212.57 10.2536 212.45 9.41359 212.36C8.18359 212.21 8.8136 207.5 5.9036 211.1C5.1536 212.06 2.93358 210.74 4.52358 208.61C5.24358 208.13 5.9336 207.62 6.6536 207.14Z" fill="#838383"/>
<path d="M21.1738 212C17.4838 213.38 18.9237 215.12 20.9337 216.65C22.4037 217.76 24.9238 219.53 23.2138 220.61C20.4538 222.32 18.5038 226.37 14.8438 225.56C11.9038 224.93 13.4037 223.46 15.3537 222.8C15.1437 220.07 15.8338 217.19 14.2438 214.64C15.2938 212.99 16.3738 211.37 17.4238 209.72C17.9038 207.23 18.5038 204.89 21.9538 206.36C23.0938 208.43 22.9138 210.32 21.1738 212Z" fill="#A8A7A7"/>
<path d="M34.7309 95.03C35.1509 93.8 35.5409 92.6 35.9609 91.37C37.2809 91.1 38.5709 90.8301 41.0009 90.3201C38.4809 93.2601 36.3809 95.8401 40.9109 97.4601C41.3009 97.8801 41.4209 98.3901 41.3609 98.9601C40.5509 101.33 38.8109 103.16 37.5509 105.26C36.2609 106.49 34.9109 107.6 32.9909 107.54C31.6409 106.85 31.4309 105.89 32.2709 104.63C32.5409 102.74 30.7109 102.2 29.9609 101C31.0109 98.6301 31.6109 95.84 34.7309 95.03Z" fill="#AEAEAE"/>
<path d="M67.7588 101.03C65.7488 103.22 71.1188 106.73 66.4388 108.44C66.1088 108.29 65.9588 108.11 65.9888 107.87C66.0188 107.6 66.0788 107.48 66.1688 107.48C66.6788 104.42 62.4488 104.12 62.5988 101.27C63.5888 100.67 65.2388 99.1402 64.7288 98.9002C59.1488 96.1102 63.6188 89.2102 59.2988 86.0902C64.1888 87.1402 65.0588 91.5202 66.6188 95.2102C67.3688 97.0102 67.3988 99.0802 67.7588 101.03Z" fill="#939393"/>
<path d="M24.8281 129.2C25.1881 123.47 24.7381 117.53 29.8681 113.3C30.1081 113.33 30.3781 113.39 30.6181 113.42C32.3881 114.32 33.2281 115.79 33.2281 117.74C33.1981 118.7 33.2881 119.63 33.6181 120.56C33.9781 121.52 34.2181 122.48 33.8881 123.53C32.5381 126.02 30.0181 127.19 27.9481 128.87C26.9281 129.38 25.9381 129.89 24.8281 129.2Z" fill="#BAB9B9"/>
<path d="M66.5581 127.88C67.7281 127.49 68.928 127.1 70.098 126.74C71.178 129.08 72.9781 131.18 72.5581 134.03C72.1681 134.12 71.4781 134.12 71.4181 134.3C70.3981 137.87 67.548 138.71 64.938 137.24C61.938 135.56 63.978 132.68 64.848 130.37C65.178 129.44 65.9581 128.69 66.5581 127.88Z" fill="#A9A9A9"/>
<path d="M18.9193 160.88C19.8493 162.77 20.7793 164.69 21.7093 166.58C23.1793 167.84 24.7693 167.15 26.3293 166.85C28.1293 166.49 30.0193 165.74 30.7393 168.35C31.2793 170.39 30.4393 171.89 28.6393 172.85C25.9693 174.23 23.6893 176.36 20.5993 176.9C18.9193 177.02 17.3593 176.87 16.2793 175.4C21.6793 173.78 21.3193 170.06 19.6093 165.98C18.8893 164.3 16.5193 162.95 18.9193 160.88Z" fill="#A9A9A9"/>
<path d="M21.3802 206.03C20.0602 207.26 18.7402 208.49 17.4202 209.72C15.8602 210.08 14.3002 210.44 12.7402 210.77C15.1402 207.41 16.5502 203.3 20.1502 200.87C20.8102 200 21.4102 199.07 22.7302 199.19C24.0802 200.81 28.8802 199.13 27.0802 203.75C26.6302 204.44 26.0302 205.01 25.3402 205.49C24.0802 206.18 22.8202 206.81 21.3802 206.03Z" fill="#BEBEBE"/>
<path d="M59.2686 72.0201C62.2386 68.3601 56.3286 65.5102 58.2786 62.0302C61.3086 62.0902 60.1686 69.8901 65.4186 65.7501C67.2486 68.3601 66.2886 70.3101 64.5186 72.6801C61.9686 76.1901 60.6786 75.0201 59.2686 72.0201Z" fill="#D4D4D4"/>
<path d="M24.828 129.2C25.788 128.75 26.718 128.3 27.678 127.85C31.188 128.33 30.528 130.58 29.808 132.86C28.818 136.58 25.368 137.39 22.548 138.95C22.548 135.5 21.948 131.93 24.828 129.2Z" fill="#C9C8C8"/>
<path d="M66.2027 107.48C66.3227 107.78 66.4127 108.11 66.4427 108.44C64.8827 113.48 71.0627 115.16 71.2127 119.45C69.6527 119.51 68.9627 120.41 68.8727 121.88C67.3427 119.36 65.3627 117.02 64.3727 114.32C63.5327 112.01 63.1727 109.1 66.2027 107.48Z" fill="#DFDFDF"/>
<path d="M37.1631 225.47C38.8131 226.28 40.0131 227.96 42.0831 227.96C38.3931 230.69 34.343 231.62 29.873 230.36C29.873 229.94 29.873 229.55 29.873 229.13C31.373 226.07 33.7131 224.66 37.1631 225.47Z" fill="#D4D4D4"/>
<path d="M17.6919 232.85C16.8519 232.79 16.0119 232.73 15.1719 232.7C16.6719 226.7 19.1319 226.13 25.0419 230.42C22.9119 232.16 20.0019 231.65 17.6919 232.85Z" fill="#ACABAB"/>
<path d="M34.7296 95.0301C32.6596 96.6801 33.3196 100.46 29.9596 101.06C27.2596 97.4901 28.4596 95.2101 32.3296 93.8301C33.1396 94.2201 33.9196 94.6401 34.7296 95.0301Z" fill="#888989"/>
<path d="M16.2521 175.4C17.9621 175.43 19.6721 175.46 21.3821 175.49C21.4721 178.82 17.4821 178.04 16.5221 180.29C15.5921 180.35 14.6621 180.41 13.7621 180.47C9.26206 176.18 13.1921 176 16.2521 175.4Z" fill="#A8A8A8"/>
<path d="M38.1816 48.5303C38.9916 42.4403 39.8317 36.3503 40.6417 30.2603L40.9416 30.4703C44.2116 36.9503 43.5517 43.9103 39.2317 48.8603C38.8717 48.7403 38.5116 48.6203 38.1816 48.5303Z" fill="#6D6C6C"/>
<path d="M14.2108 214.64C18.8608 216.77 16.7308 219.83 15.3208 222.8C14.5108 221.66 13.7308 220.52 12.9208 219.38C12.0808 217.46 14.3608 216.38 14.2108 214.64Z" fill="#797979"/>
<path d="M35.7207 56C36.5307 53.51 37.3407 51.02 38.1807 48.53L38.5107 48.74C41.0607 50.06 41.5407 52.25 40.6107 54.68C39.8607 56.66 38.3907 57.32 36.4407 55.91L36.0807 55.85L35.7207 56Z" fill="#6D6C6C"/>
<path d="M4.52293 208.61C5.87293 211.73 9.89295 209.3 11.4829 211.94C8.45295 214.73 6.02293 211.85 3.56293 210.89C2.72293 210.53 3.50293 209.12 4.52293 208.61Z" fill="#BEBEBE"/>
<path d="M55.5201 77.96C55.9401 77.51 56.3302 77.09 56.7502 76.64C59.2702 78.05 59.3002 80.42 59.0902 82.85C55.9402 82.64 55.2501 80.63 55.5201 77.96Z" fill="#A6A6A6"/>
<path d="M32.2438 104.69C32.6338 105.53 33.0238 106.4 33.4138 107.24C34.8838 110.6 34.8838 113.24 30.2338 113.54L29.8438 113.27C31.1338 110.57 30.3538 107.27 32.2438 104.69Z" fill="#BAB9B9"/>
<path d="M51.8594 224.21C53.0294 219.11 49.0995 221.21 46.9695 220.76C46.4895 217.61 49.1295 218.06 50.8995 217.25C49.1895 214.46 47.7194 211.49 48.6794 207.95C49.5794 206.06 50.8695 204.83 53.1495 205.22C54.5295 205.88 55.2494 206.78 54.2894 208.31C54.7094 213.08 59.5694 214.58 61.5794 218.15C62.9594 217.58 63.5594 218.33 63.9194 219.5C63.7694 220.49 63.2594 221.81 62.2694 221.03C59.1494 218.63 58.8794 221.42 57.9494 223.1C56.3894 225.98 54.2294 225.71 51.8594 224.21Z" fill="#898989"/>
<path d="M54.2925 208.31C53.8125 207.56 53.3325 206.81 52.8525 206.06C50.2125 201.65 54.5025 198.95 55.7925 195.65C56.6025 193.58 58.8525 194.96 60.0525 196.61C60.4725 197.36 60.7725 198.14 61.0125 198.95C61.8225 200.48 62.8725 201.92 62.5425 203.81C61.8225 206 60.6825 207.65 58.0125 207.41C56.7525 207.71 55.5225 208.01 54.2925 208.31Z" fill="#DDDCDC"/>
<path d="M58.0098 207.41C59.2698 206.12 60.4998 204.8 61.7598 203.51C62.5098 202.01 63.4398 200.96 65.1798 202.34C65.2098 202.76 65.2398 203.15 65.2698 203.57C66.4398 205.43 68.2998 206.75 69.3798 208.67C69.5898 209.96 69.4098 210.98 67.7598 210.92C66.5898 211.07 65.3298 210.98 64.2498 211.4C60.2298 213.02 58.2798 211.58 58.0098 207.41Z" fill="#898989"/>
<path d="M63.9533 219.5C63.1733 219.05 62.3933 218.6 61.6133 218.15C62.3033 214.19 64.6433 217.04 66.2033 217.13C67.0733 217.19 67.5233 218.09 67.1033 218.96C66.3533 220.52 65.0933 219.77 63.9533 219.5Z" fill="#B2B2B1"/>
<path d="M67.7598 210.92C68.5998 210.32 68.8098 209.48 68.7498 208.55C69.1398 208.07 69.5898 208.04 70.0998 208.37C72.0198 209.51 73.6998 210.83 73.6998 213.35C72.1998 211.37 68.7798 214.04 67.7598 210.92Z" fill="#AEAEAE"/>
<path d="M36.4432 55.9101C41.9932 54.9201 39.2332 51.5001 38.5132 48.7101C42.4132 43.0401 40.2532 36.5302 40.9432 30.4402C41.6932 29.5402 42.4432 28.6702 43.4032 27.5302C47.1532 32.3302 45.2932 37.8502 45.8632 42.9802C43.8232 45.2902 46.8232 47.6302 45.8032 49.9402C44.0932 53.8402 42.1132 57.6801 42.0532 62.1201C42.4432 62.5101 42.8632 62.9001 43.2532 63.2601C46.1632 64.7901 46.7932 68.9301 50.5432 69.5001C51.0232 71.5101 52.0132 73.5202 50.8732 75.6502C51.1732 76.1302 51.0532 76.4901 50.6032 76.7901C48.4132 79.7901 49.2232 83.7501 47.3932 86.9301C45.2932 87.6501 46.2232 84.5001 44.3032 84.7101C43.7332 86.8701 45.5332 89.7201 42.7732 91.9401C41.1532 85.3101 40.4332 78.8301 37.4332 73.0101C37.7932 70.3701 38.6632 67.9401 36.2632 65.3901C33.6232 62.5101 36.4432 59.0901 36.4432 55.9101Z" fill="#6C6C6C"/>
<path d="M59.2119 100.97C60.3819 107.54 61.5819 114.11 62.7519 120.68C63.1719 123.2 62.3019 125.18 60.3519 126.77C60.0219 127.94 59.0619 128.45 58.1019 128.96C57.4119 130.76 57.4719 133.73 54.1419 131.51C53.5419 129.83 51.9219 129.32 50.6019 128.48C49.5519 127.13 49.8219 125.57 49.8519 124.1C45.1719 125.6 44.4219 124.88 43.6719 117.95C44.7519 115.49 46.8819 114.74 49.3119 114.5C50.1819 114.47 51.0219 114.47 51.8919 114.44C54.4419 111.53 53.1219 107.6 54.5319 104.39C55.5819 102.53 56.4819 100.49 59.2119 100.97Z" fill="#797979"/>
<path d="M32.1799 120.83C30.8599 119.9 31.0699 118.97 32.2399 118.07C33.2299 113.54 36.1699 109.82 37.4299 105.38C38.1499 102.92 40.3699 101.21 40.6699 98.5402C40.6999 98.1802 40.7599 97.8203 40.8799 97.4603C41.9899 97.1603 43.6099 95.3902 43.7899 96.0802C44.4199 98.5702 46.3999 101.39 44.5999 103.82C42.1099 107.21 42.5599 110.66 43.1299 114.29C43.2499 115.22 42.8599 116 42.2899 116.69C38.8999 118.04 37.1899 123.5 32.1799 120.83Z" fill="#6D6C6C"/>
<path d="M55.4286 104.75C55.2186 109.01 53.9886 113.21 55.6086 117.44C52.2486 117.95 53.4486 114.92 51.8886 114.47C53.5086 108.53 49.3386 103.46 49.3086 97.7001C49.3086 94.5501 50.1486 91.9701 52.8186 90.6801C55.4586 89.4201 56.2086 92.7201 57.9186 93.8001C58.5186 94.6101 59.1486 96.1101 58.5186 96.4401C54.9786 98.3601 56.0586 101.84 55.4286 104.75Z" fill="#ACACAC"/>
<path d="M55.4309 104.75C54.6509 103.19 53.3309 101.66 53.1809 100.04C53.0609 98.51 51.2309 94.46 56.2709 96.62C58.4309 97.52 57.5609 94.91 57.9209 93.8C59.5109 94.58 60.351 95.81 60.231 97.64C58.221 98.24 58.2209 99.47 59.1809 101C57.2609 101.54 56.9309 103.73 55.4309 104.75Z" fill="#939393"/>
<path d="M50.5998 76.7302C50.6598 76.3402 50.7498 75.9802 50.8698 75.5902C51.1698 75.9502 51.4698 76.2802 51.7398 76.6402C51.8298 78.2302 51.4398 79.8802 52.6398 81.2602C55.8798 85.0102 52.9398 86.6002 49.0098 89.6902C51.0198 84.4402 50.6898 80.5702 50.5998 76.7302Z" fill="#A7A6A6"/>
<path d="M41.9025 115.61C42.3225 115.19 42.7125 114.77 43.1325 114.32C44.7525 114.62 46.0125 114.35 47.3625 113.12C48.8925 111.71 49.1325 113.36 49.3425 114.5C47.7225 115.73 46.1025 116.93 44.4825 118.16C41.7825 119.15 41.1525 118.07 41.9025 115.61Z" fill="#A7A7A7"/>
<path d="M29.8117 132.86C27.5917 131.84 30.9516 128.42 27.6816 127.85C28.7016 125.24 31.8517 125.06 33.2317 122.87C34.8517 120.47 38.4216 122.12 40.2516 119.24C41.1216 117.86 42.9516 119.81 43.7916 121.31C46.5816 126.29 45.4717 130.13 39.4117 136.13C38.6917 136.67 37.9416 137.12 37.0416 136.58C32.8416 138.74 31.4017 135.62 29.8117 132.86Z" fill="#797879"/>
<path d="M37.0133 136.52C37.4933 136.07 37.9433 135.62 38.4233 135.17C40.0433 134.03 41.8733 133.43 43.8233 133.13C48.8633 134.6 49.5233 138.11 48.1433 142.55C47.3033 142.91 46.4633 143.3 45.6233 143.66C44.9333 142.76 44.3333 141.23 43.5533 141.11C42.4433 140.96 41.2133 142.25 41.2133 143.45C41.2133 145.55 41.5433 147.98 38.6333 147.74C35.5433 147.5 36.4733 144.5 35.6333 142.55C34.3733 139.73 37.7933 138.74 37.0133 136.52Z" fill="#6F6E6E"/>
<path d="M62.8096 153.59C64.0696 154.85 65.2996 156.11 66.5596 157.37C66.5296 158.9 66.5296 160.46 66.4996 161.99C66.1996 164.09 64.7596 165.05 62.8996 165.56C61.9996 165.71 61.0996 165.59 60.2296 165.29C57.8896 163.55 55.0096 162.17 55.3996 158.51C52.3096 156.74 50.7196 154.4 52.4896 150.5C55.1296 150.8 55.6996 153.62 57.4996 154.94C60.0496 156.86 61.6696 156.65 62.8096 153.59Z" fill="#B7B7B6"/>
<path d="M51.8634 163.37C52.2534 163.31 52.6134 163.31 53.0034 163.31C54.9234 164.36 55.6434 166.52 57.3234 167.78C58.1934 168.38 59.2434 168.56 60.1734 169.01C61.8834 170.27 62.8134 171.86 62.0334 174.05C59.3334 175.88 55.9434 175.55 53.1234 177.05C50.8434 175.94 49.2234 174.14 47.7834 172.13C47.5734 171.62 47.4834 171.05 47.4534 170.51C45.9834 163.55 45.9834 163.55 51.8634 163.37Z" fill="#7E7E7E"/>
<path d="M51.8614 163.37C50.9014 164.87 48.9214 164.27 48.1414 164.84C46.3714 167.24 53.9314 168.5 48.1414 170.75C45.5314 171.47 42.3814 175.25 40.9414 169.46C40.9414 168.89 41.0314 168.35 41.1514 167.81C41.6614 165.89 42.6214 164.27 44.5114 163.37C44.5114 161.72 44.5114 160.1 44.5114 158.45C45.7114 158.45 46.8814 158.45 48.0814 158.45V158.48C47.9914 161.18 52.1614 160.55 51.8614 163.37Z" fill="#A4A4A4"/>
<path d="M51.8919 147.44C51.6519 145.28 51.4119 143.12 51.1719 140.96C59.0619 141.8 60.0819 142.97 60.3519 151.13C57.6819 149.63 55.3419 147.26 51.8919 147.44Z" fill="#A8A8A8"/>
<path d="M48.1118 158.45C48.0218 158.27 47.9618 158.09 47.8718 157.91C46.7918 155.48 46.0718 153.02 48.2918 150.83C48.9218 150.23 50.0019 150.38 50.2119 151.25C50.8119 153.98 51.3518 156.8 48.1118 158.45Z" fill="#818181"/>
<path d="M55.3705 158.51C56.9905 160.52 58.6105 162.5 60.2605 164.51C59.9305 164.96 59.4805 165.26 58.9705 165.44C58.1605 165.62 57.3505 165.53 56.5705 165.2C55.3105 164.51 54.4405 163.52 54.3205 162.02C53.5705 160.52 52.2205 158.84 55.3705 158.51Z" fill="#7E7E7E"/>
<path d="M54.3236 162.02C55.4336 162.53 56.2736 163.34 56.6936 164.54C57.9536 166.22 58.2836 167.87 56.6036 169.49C55.1036 167.63 52.7336 166.25 53.0036 163.34C53.4536 162.89 53.8736 162.47 54.3236 162.02Z" fill="#A09F9F"/>
<path d="M67.6121 147.41C66.4421 148.19 65.9922 150.02 64.1322 149.78C63.8322 148.82 63.3821 147.92 63.2621 146.93C62.8721 143.84 61.9721 140.18 67.4021 142.91C68.2721 143.33 69.0521 140.93 70.4321 142.25C70.3421 144.47 68.3321 145.58 67.6121 147.41Z" fill="#A9A9A9"/>
<path d="M48.1432 142.55C48.4432 138.59 47.2732 135.47 43.2232 134C42.9832 131.96 42.8932 129.98 45.0832 128.81C46.4032 128.9 47.0032 129.92 47.6032 130.88C48.1732 131.9 48.1732 133.01 48.0832 134.12C54.2032 136.91 49.3432 139.76 48.1432 142.55Z" fill="#797879"/>
<path d="M48.0821 134.15C47.2121 133.55 46.9721 132.68 47.0321 131.69C47.3921 129.65 47.7822 127.64 50.5722 127.85C53.1222 127.76 54.5622 128.72 54.1422 131.51C51.0222 129.8 50.2422 133.58 48.0821 134.15Z" fill="#A1A1A1"/>
<path d="M58.1012 128.96C57.9812 127.34 59.0312 126.89 60.3512 126.77C62.0612 128.39 62.5112 130.49 60.3512 131.6C58.7012 132.44 59.5112 129.38 58.1012 128.96Z" fill="#BDBCBC"/>
<path d="M50.54 69.4701C44.72 71.3601 43.64 67.7301 43.25 63.2601C44.87 62.0901 46.49 60.9201 48.14 59.7501C48.11 62.8101 51.32 64.8801 50.81 68.0901C50.69 68.5401 50.63 69.0201 50.54 69.4701Z" fill="#848484"/>
<path d="M42.0514 62.0901C40.5814 61.7901 39.1114 61.4901 36.4414 60.9501C41.5414 58.4601 43.4014 55.0401 43.4614 50.4201C43.4614 48.9801 44.9314 49.7001 45.8014 49.9401C45.9214 54.4101 44.3914 58.3701 42.0514 62.0901Z" fill="#6D6C6C"/>
<path d="M53.2695 57.3201C53.1495 57.8901 53.2096 58.6401 52.8796 59.0301C51.7096 60.3801 51.9796 58.7601 51.7996 58.4001C50.9896 56.8401 50.2695 55.2501 49.5195 53.6601C56.3595 49.1301 51.6195 56.5101 53.2695 57.3201Z" fill="#949494"/>
<path d="M73.6691 202.37C73.9691 199.79 73.1291 197.42 72.2891 195.02C73.6991 194.99 75.1991 194.78 76.1891 196.19C76.7891 199.07 81.4691 198.59 81.1391 202.22C82.3091 203.24 83.5391 204.23 84.6191 205.31C86.4191 207.11 85.0691 208.37 83.8991 209.81C80.7791 213.62 80.8991 207.29 78.7391 208.22C78.2591 207.98 77.8391 207.62 77.5391 207.17C76.9691 205.01 75.1091 203.87 73.6691 202.37Z" fill="#969696"/>
<path d="M78.4388 179.3C79.3688 180.02 80.2688 180.74 81.1988 181.43C78.4988 184.22 74.0889 185.66 74.9289 191.48C71.8089 189.5 74.8389 187.31 73.0689 186.14C70.7889 186.2 69.4988 190.79 66.4388 187.64C66.0488 187.16 65.8989 186.62 66.0189 186.02C68.6889 181.07 73.1288 179.39 78.4388 179.3Z" fill="#8B8C8C"/>
<path d="M59.2112 199.82C59.1812 199.01 59.1812 198.23 59.1512 197.42C60.1712 195.08 56.7512 194.48 57.2012 192.35C58.0112 189.71 59.6012 187.79 62.3612 187.04C62.9612 187.07 63.4412 187.34 63.8312 187.79C66.5912 191.66 62.0312 194.87 62.8412 198.59C62.4512 201.47 60.8012 200.51 59.2112 199.82Z" fill="#7B7B7B"/>
<path d="M63.8615 187.82C63.5315 187.7 63.1715 187.64 62.8115 187.67C61.9115 187.28 60.8615 187.22 60.0215 186.77C58.3115 185.84 56.0315 185.03 56.3315 182.69C56.7215 179.84 59.2715 180.08 61.4615 180.05C64.8215 180.89 66.9815 182.69 66.6215 186.5C66.5615 186.89 66.5015 187.28 66.4715 187.67C65.5715 187.73 64.7015 187.79 63.8615 187.82Z" fill="#C0C0C0"/>
<path d="M81.1425 202.25C79.6425 201.38 78.2025 200.42 76.6725 199.67C74.6025 198.68 74.7225 197.57 76.1925 196.19C78.6825 195.89 80.5125 197.18 82.3125 198.59C82.6425 200.06 86.4225 202.61 81.1425 202.25Z" fill="#DDDDDD"/>
<path d="M70.101 208.37C69.651 208.43 69.201 208.49 68.751 208.55C66.771 207.47 62.841 207.77 65.271 203.57C66.651 202.64 66.291 201.2 66.441 199.88C70.281 201.56 69.201 205.4 70.101 208.37Z" fill="#C3C2C2"/>
<path d="M71.4823 195.08C71.0323 195.89 70.5823 196.7 70.1623 197.51C68.4523 197.15 66.4123 197.06 66.2923 194.72C66.2323 193.76 67.0123 192.86 68.1523 192.65C70.1023 192.26 71.1823 193.16 71.4823 195.08Z" fill="#7E7E7E"/>
<path d="M59.2109 199.82C60.5309 199.76 61.9409 199.94 62.8709 198.59C65.2409 198.83 65.2109 200.57 65.1809 202.31C64.0409 202.7 62.9009 203.09 61.7609 203.48C61.9109 201.59 59.8409 201.2 59.2109 199.82Z" fill="#919292"/>
<path d="M78.5283 207.29C78.6183 207.62 78.6783 207.92 78.7683 208.25C78.5283 209.99 78.8283 212.75 76.6083 212.54C74.0583 212.3 74.4784 209.18 73.8184 207.2C75.4084 204.47 76.9683 204.65 78.5283 207.29Z" fill="#D7D7D7"/>
<path d="M78.5315 207.29C76.9715 206.06 75.4115 206.09 73.7915 207.23C69.8015 205.7 73.7915 203.99 73.6715 202.37C77.2415 202.1 78.8915 203.69 78.5315 207.29Z" fill="#AEAEAE"/>
<path d="M42.0801 168.2C42.2301 170.21 41.9601 172.85 45.2001 170.42C46.3701 169.52 47.3301 169.46 48.1401 170.78C48.1401 171.08 48.1401 171.38 48.1401 171.68C49.4001 174.29 47.5101 176.75 47.8401 179.33C47.5701 180.5 47.0001 181.4 45.9501 182.03C45.4101 182.24 44.8401 182.27 44.2701 182.21C42.8601 181.79 41.8101 181.01 41.2401 179.66C38.6601 179.51 37.2501 183.02 34.3701 181.97C33.4401 182.39 32.7201 183.23 31.6401 183.29C29.0901 182.81 28.2801 181.07 28.2501 178.64C24.5901 184.94 24.6801 185.39 29.6601 186.95C31.7001 192.86 30.8301 194.18 25.1001 193.85C20.3901 191.39 19.1601 187.67 21.1101 182.81C20.0001 182.36 21.4701 179.54 18.9201 180.44C18.1401 180.41 17.3301 180.38 16.5501 180.38C15.6501 176.24 19.8801 177.26 21.4101 175.58C23.7801 174.14 26.0601 172.52 28.5501 171.32C30.0801 170.57 30.0201 169.61 29.6301 168.47C29.1801 167.15 28.1301 167.54 27.1401 167.87C25.1301 168.5 22.6701 171.11 21.7701 166.67C25.5201 165.83 29.5401 165.56 32.1501 162.14C37.0101 155.78 40.3401 163.82 44.5701 163.43C43.7301 164.96 42.9201 166.58 42.0801 168.2C40.7301 167.15 39.6201 168.68 38.3601 168.62C37.4601 168.83 36.2601 168.68 35.9601 169.76C35.6001 170.93 36.9201 171.17 37.5501 171.77C39.0201 173.48 38.8101 171.71 39.1401 170.99C39.7401 169.64 39.7101 167.63 42.0801 168.2Z" fill="#868686"/>
<path d="M32.333 182.78C32.363 181.79 32.573 180.89 33.503 180.35C34.853 181.04 34.763 182.78 35.843 183.68C38.753 183.29 37.733 177.65 41.993 179.09C42.803 179.9 43.643 180.71 44.453 181.52C46.013 183.05 45.8031 184.82 44.8131 186.41C43.4031 188.72 44.063 191 44.453 193.31C39.983 199.73 40.7031 207.32 39.8031 214.52C39.7131 215 39.233 215.69 39.773 215.9C40.673 216.29 40.913 215.42 41.093 214.73C41.903 211.37 42.1731 208.01 41.9031 204.53C41.7231 202.22 42.413 199.76 45.113 199.46C48.023 199.13 47.153 201.83 47.423 203.39C47.753 205.22 49.1631 206.6 49.3131 208.46C51.0531 211.49 49.1031 216.59 55.6431 217.37C52.3431 219.47 48.743 217.91 47.003 220.73C44.333 223.58 39.773 222.47 37.163 225.44C34.733 226.67 32.273 227.87 29.843 229.1C28.583 227.96 25.2831 227.96 27.3831 224.93C28.7931 222.89 29.093 221.48 26.333 220.28C24.593 219.53 24.9231 218.09 26.2131 216.92C28.7631 216.05 30.293 213.83 32.513 212.48C31.583 211.49 30.4731 211.49 29.7231 210.86C28.5531 211.25 27.3831 211.64 26.2131 212.03C23.3931 209.96 23.483 207.35 24.773 204.47C25.193 204.11 25.6431 203.75 26.0631 203.39C27.6531 202.76 28.793 201.08 30.923 201.71C31.883 202.01 32.273 204.02 33.533 202.76C34.133 202.13 34.103 200.87 33.593 199.94C32.933 198.77 31.733 198.14 30.593 198.47C27.953 199.28 25.313 199.85 22.553 199.82C21.743 200.18 20.9631 200.51 20.1531 200.87C20.1531 200.15 20.123 199.4 20.123 198.68C20.573 195.83 23.3331 195.32 25.0731 193.82C30.2931 193.25 29.9631 190.07 28.5531 186.41C27.0231 182.3 31.523 184.46 32.333 182.78Z" fill="#767676"/>
<path d="M29.718 210.86C31.668 210.23 34.218 208.16 35.418 210.98C36.678 213.95 33.378 214.28 31.488 214.97C29.718 215.63 29.058 219.32 26.208 216.95C25.848 214.04 30.348 213.92 29.718 210.86Z" fill="#636262"/>
<path d="M24.8019 204.5C25.2819 207.02 25.7619 209.54 26.2419 212.06C24.5619 212.03 22.8519 212.03 21.1719 212C21.2319 210.02 21.3219 208.01 21.3819 206.03C22.5219 205.52 23.6619 205.01 24.8019 204.5Z" fill="#8C8C8C"/>
<path d="M66.5895 186.53C64.9695 184.73 64.3095 181.97 61.4295 181.49C59.9895 180.74 59.2095 179.63 59.4495 177.95C59.6595 176.45 60.3495 175.22 61.5495 174.26C61.3395 172.34 60.5595 170.66 59.0895 169.37C57.6195 167.81 57.8595 166.25 59.0295 164.66C59.4195 164.6 59.8395 164.57 60.2295 164.51C61.0995 164.54 61.9695 164.57 62.8395 164.6C64.0095 168.77 68.3895 169.79 70.7595 172.76C71.7795 175.31 73.6695 176.03 76.2495 175.4C77.7795 176.27 78.4995 177.56 78.4395 179.3C74.9295 182.42 69.2895 182.06 66.5895 186.53Z" fill="#A4A4A4"/>
<path d="M71.211 158.63C68.901 153.47 70.371 150.44 76.191 149.87C74.721 156.8 80.361 161.84 81.111 168.2C81.261 169.43 83.001 170.57 81.081 171.77C78.531 166.85 75.321 162.41 71.211 158.63Z" fill="#8D8D8D"/>
<path d="M70.0417 173.12C66.6217 171.14 61.7317 170.39 62.8717 164.6C64.0717 163.73 65.2718 162.86 66.5018 161.99C69.2318 163.88 71.1218 166.43 72.5618 169.37C72.2618 170.99 71.5417 172.31 70.0417 173.12Z" fill="#8B8B8B"/>
<path d="M70.0424 173.12C70.0124 171.29 70.1325 169.55 72.5625 169.37C76.5525 169.67 75.8924 172.85 76.2824 175.4C76.0124 177.86 74.3924 178.16 72.4124 177.86C69.3824 177.38 70.4324 174.89 70.0424 173.12Z" fill="#7E7E7E"/>
<path d="M18.8923 180.38C22.6423 178.4 20.8423 181.52 21.0823 182.75C19.8523 183.41 20.2123 186.38 18.7123 185.57C16.3723 184.28 18.1723 182.12 18.8923 180.38Z" fill="#CFCFCF"/>
<path d="M38.3905 106.01C39.2305 111.5 34.1005 113.96 32.2405 118.1C32.5405 116.18 30.5905 115.25 30.2305 113.6C32.9005 112.31 32.8405 109.64 33.4105 107.3C34.1605 105.77 35.3605 104.9 37.0705 104.75C37.8505 104.78 37.9405 105.59 38.3905 106.01Z" fill="#9B9B9B"/>
<path d="M38.3929 106.01C37.9729 105.59 37.5229 105.14 37.1029 104.72C36.6829 101.72 39.6529 100.7 40.7029 98.5699C41.8729 101.66 39.0229 103.49 38.3929 106.01Z" fill="#888989"/>
<path d="M45.6816 129.08C44.8716 130.73 44.0616 132.35 43.2516 134C41.7516 134.84 40.1916 135.38 38.4216 135.17C38.4816 133.43 40.1317 133.22 41.0617 132.32C44.1517 129.23 44.0917 125.3 41.1517 120.11C38.0617 121.07 41.0016 124.7 38.1816 126.11C36.8616 124.73 36.8617 120.59 33.2317 122.87C32.8717 122.21 32.5416 121.52 32.1816 120.86C36.6216 121.37 37.8516 115.88 41.9316 115.64C42.1116 117.17 42.8317 118.16 44.4817 118.22C45.3517 124.91 48.7716 123.68 53.1216 121.13C52.2516 122.18 51.4116 123.23 50.5416 124.28C49.7916 126.74 48.3816 128.54 45.6816 129.08Z" fill="#939393"/>
<path d="M22.5493 199.85C24.4393 198.02 27.2893 198.35 29.3593 196.46C31.5493 194.48 33.6193 197.54 35.6893 198.29C37.7293 199.04 36.3494 200.81 35.6294 202.28C34.8794 203.84 34.6393 205.64 33.9493 208.16C32.2693 204.41 30.4093 201.35 26.0893 203.42C27.4093 199.76 22.3393 202.4 22.5493 199.85Z" fill="#8C8C8C"/>
<path d="M38.3928 214.49C37.0428 209.24 40.8228 204.14 38.7528 198.77C38.2728 197.51 37.3428 194.63 41.0628 196.22C43.1928 197.15 42.9828 194.96 43.3128 193.73C45.6228 193.19 45.6228 196.07 47.3028 196.43C49.4028 196.55 49.9128 194.42 51.3228 193.58C52.7628 192.95 54.2027 192.35 55.6727 191.81C56.5427 191.72 57.2927 191.84 57.7727 192.65C58.0127 194.3 61.5527 194.99 59.1227 197.39C58.4627 196.4 56.6327 195.08 56.6027 196.13C56.4527 199.97 52.7327 202.25 52.8527 206C51.0527 205.88 50.5428 207.71 49.3128 208.43C45.1128 205.49 45.0227 205.28 45.7727 200.48C43.2827 202.88 43.1028 204.08 43.0728 215.84C41.0028 217.19 39.4428 216.8 38.3928 214.49Z" fill="#919292"/>
<path d="M45.6816 129.08C46.8216 126.98 48.6516 125.54 50.5416 124.22C52.3716 125.39 51.0516 126.62 50.6016 127.82C49.4316 129.11 48.2317 130.37 47.0617 131.66C45.9817 131.12 45.7416 130.16 45.6816 129.08Z" fill="#6F6E6E"/>
<path d="M61.5821 174.26C61.8821 175.7 61.7621 177.05 60.5621 178.07C57.9521 180.11 55.312 181.88 52.522 178.28C52.492 177.68 52.7321 177.17 53.1521 176.78C54.8321 172.22 58.2821 173.48 61.5821 174.26Z" fill="#5F5E5E"/>
<path d="M53.1482 176.81C53.0882 177.17 53.0282 177.56 52.9982 177.92C52.6382 178.34 52.2182 178.67 51.7382 178.91C50.2082 179.39 48.7082 180.5 47.0282 179.3C44.8682 176.39 47.2982 174.14 48.1382 171.65C50.6882 172.52 52.3682 174.23 53.1482 176.81Z" fill="#A1A1A1"/>
<path d="M59.0283 164.66C59.0583 166.22 59.0883 167.81 59.0883 169.37C58.3083 170.45 57.4684 170.39 56.5684 169.49C56.5984 167.84 56.6284 166.19 56.6584 164.54C57.4684 164.57 58.2483 164.6 59.0283 164.66Z" fill="#C1C0C0"/>
<path d="M51.8606 177.95C52.2506 177.98 52.6406 177.95 53.0006 177.92C55.4606 180.35 58.0406 177.98 60.5306 178.1C60.8306 179.24 61.1306 180.38 61.4006 181.49C60.0806 181.73 58.7606 182 56.9906 182.33C59.1806 184.34 60.9506 186.02 62.7506 187.67C61.1006 189.35 59.4206 191 57.7706 192.68C56.9906 192.62 56.2106 192.59 55.4306 192.53C53.4806 188.12 48.9206 187.97 45.2906 186.32C44.3906 183.23 47.3906 182.93 48.7406 181.49C50.0306 180.5 50.5406 178.88 51.8606 177.95Z" fill="#7C7C7C"/>
<path d="M32.3321 182.78C33.8321 186.83 29.1821 184.52 28.5821 186.41C27.2921 187.61 24.7721 189.89 24.3521 188.63C23.5421 186.2 22.9121 182.93 24.7121 180.44C25.9721 178.7 27.9221 177.44 30.7421 174.89C29.2721 178.82 28.8221 181.58 32.3321 182.78Z" fill="#9E9E9E"/>
<path d="M50.3632 182.57C49.7932 184.88 45.7432 183.17 45.9532 186.38C46.9432 187.85 47.9632 189.26 49.7032 189.92C52.3432 193.79 48.7732 195.8 47.1832 198.41C43.4932 198.83 45.3232 194.75 43.3432 193.73C39.7132 189.29 44.8432 185.6 44.4532 181.46C44.8432 181.49 45.2632 181.52 45.6532 181.52C47.3032 181.43 49.0432 181.04 50.3632 182.57Z" fill="#9F9F9F"/>
<path d="M41.96 179.06C39.29 179.63 38.72 181.73 38.45 183.98C38.21 185.81 38.21 187.82 35.6 187.52C32.96 187.22 33.65 185 33.56 183.32C33.5 182.33 33.5 181.34 33.5 180.35C38.21 181.61 39.26 176.57 42.41 175.01C43.46 176.6 41.63 177.71 41.96 179.06Z" fill="#616161"/>
<path d="M37.1901 171.86C36.0801 172.37 35.2701 174.95 33.9801 173.27C32.6901 171.56 32.9302 168.95 34.9702 167.48C35.8102 166.85 37.2801 167.09 38.4501 166.94C39.8301 169.04 39.5601 170.72 37.1901 171.86Z" fill="#B8B8B7"/>
<path d="M37.1914 171.86C37.6114 170.21 38.0314 168.56 38.4814 166.94C39.8314 166.97 41.2114 166.85 42.1114 168.2C40.1914 169.43 41.4214 172.04 39.8314 173.39C39.1714 173.93 38.6014 175.28 37.5814 174.14C37.1014 173.66 37.2814 172.64 37.1914 171.86Z" fill="#6F6F6F"/>
<path d="M50.3623 182.57C48.6523 182.84 46.9423 183.26 45.6523 181.55C46.1323 180.8 46.5823 180.05 47.0623 179.27C48.8623 179.57 49.8523 176.93 51.8623 177.92C51.7723 179.63 51.9523 181.4 50.3623 182.57Z" fill="#D2D2D3"/>
<path d="M38.3918 214.49C39.9518 214.94 41.5118 215.39 43.0718 215.84C42.1418 219.89 38.7818 218.63 37.0718 217.61C34.9118 216.38 37.1618 215.27 38.3918 214.49Z" fill="#AEAEAE"/>
<path d="M49.5806 190.37C45.1106 192.05 43.9106 190.7 45.9206 186.41C51.7706 184.91 56.1807 187.76 55.4607 192.56C54.7107 194.24 53.6606 194.93 51.9506 193.76C50.4506 193.1 50.6606 191.27 49.5806 190.37Z" fill="#7B7B7B"/>
<path d="M49.5795 190.37C52.2795 190.13 51.5595 192.32 51.9495 193.73C51.4395 196.4 50.0895 198.23 47.1495 198.44C45.2895 194.93 51.3195 193.82 49.5795 190.37Z" fill="#CDCDCD"/>
</svg>
