<svg width="620" height="173" viewBox="0 0 620 173" fill="none" xmlns="http://www.w3.org/2000/svg">
<path d="M607.025 23.8799C607.505 21.6299 608.405 18.8099 611.105 20.3099C613.775 21.7799 615.995 24.1199 615.455 28.3199C614.495 35.7899 610.475 42.0899 608.555 49.0799C606.995 54.6899 603.155 56.1598 599.135 55.6798C595.535 55.2298 591.245 55.2298 588.125 52.7398C582.245 48.0298 575.495 49.3199 569.015 50.0099C564.695 50.4599 561.395 49.7099 558.755 46.2599C557.945 45.2699 557.945 45.2699 557.555 46.2599C553.505 48.7499 551.225 51.4799 555.935 55.5899C556.745 56.3099 557.555 57.7198 556.775 58.9498C556.025 60.1198 554.525 59.9698 553.385 59.6998C545.645 57.7198 538.415 58.4098 530.435 60.4498C522.905 62.3698 514.175 60.3299 506.075 59.2499C497.525 58.1099 489.605 60.0899 481.925 62.9999C473.435 66.2099 467.285 74.2799 457.535 75.2099C455.165 75.4499 452.855 75.9599 450.125 76.4099C451.115 73.1099 453.965 72.7498 455.675 71.1298C456.905 69.9598 457.805 68.8198 456.185 67.6798C454.775 66.6898 452.795 66.1198 455.045 64.2898C456.605 62.9998 457.925 64.0198 459.335 65.2198C464.315 69.5698 466.835 69.3598 470.375 64.6498C470.975 63.8698 471.965 63.1499 471.335 62.0099C470.735 60.9299 469.565 61.1398 468.605 61.1098C466.355 61.0498 464.075 61.1698 461.825 60.9898C460.445 60.8698 458.285 60.1499 459.725 58.4099C463.145 54.3599 459.755 54.1199 457.265 53.5499C451.295 52.1399 446.645 47.1899 440.075 47.2499C438.845 47.2499 437.465 45.9599 438.695 44.7299C440.375 42.9899 437.975 38.5799 442.445 38.9099C446.315 39.2099 450.155 39.7499 454.025 40.2299C454.415 40.2899 454.865 40.4398 455.135 40.6798C460.955 46.1098 464.165 47.2198 473.495 47.5198C478.745 47.6998 483.845 46.2899 489.305 47.2199C496.505 48.4799 503.795 49.6499 511.055 50.6699C518.585 51.7499 526.025 52.2899 533.585 52.3499C534.845 52.3499 536.255 52.3799 536.735 51.0299C537.335 49.4099 535.745 49.0499 534.725 48.4799C532.565 47.3099 530.615 46.4398 527.795 47.0998C524.435 47.8798 521.255 46.6799 520.355 42.5699C520.835 42.2399 521.375 42.0899 521.945 42.0899C524.705 42.5399 527.405 43.8599 530.375 43.0799C530.945 41.5799 528.755 40.1699 530.195 38.6399C531.785 37.1099 533.855 37.0499 535.835 37.0799C539.465 37.1399 542.315 35.5199 545.045 33.3899C545.645 33.2999 546.215 33.3899 546.755 33.6599C550.025 37.5899 553.925 34.5898 557.555 34.6198C567.725 33.9898 577.745 34.7099 587.405 38.1599C591.245 39.3599 587.975 42.3898 588.995 44.5198C594.425 44.2798 599.975 45.1799 605.435 42.4799C600.185 38.9399 594.335 39.9299 589.055 38.5799C586.295 37.9799 583.595 37.1699 580.895 36.3299C578.885 35.7299 576.725 34.9798 576.905 32.5198C577.115 29.9098 579.575 29.9399 581.555 29.6399C582.215 29.5199 582.905 29.4899 583.565 29.5499C590.885 30.0599 598.445 28.0799 605.465 31.7099C609.995 30.2699 610.325 28.5899 607.025 23.8799Z" fill="#EBEBEB"/>
<path d="M577.449 135.15C579.399 137.85 579.789 140.49 578.199 143.67C577.149 145.8 576.759 148.35 576.579 150.78C576.129 156.42 578.409 158.46 583.899 157.11C587.409 156.24 590.829 155.61 594.099 157.23C600.879 160.56 607.959 161.88 615.489 161.28C616.359 161.22 617.289 162.03 618.189 162.42C611.259 164.49 604.089 164.28 597.009 164.88C589.689 164.43 582.399 165.12 575.079 164.88C568.059 163.35 561.159 167.31 554.139 165.33C551.829 164.52 549.729 166.35 547.449 165.9C542.589 165.06 537.729 165.18 532.899 166.05C523.929 165.12 514.989 164.07 505.959 164.49C493.899 162.99 481.719 163.5 469.629 162.69C467.199 162.54 464.649 162.87 462.339 161.67C461.079 158.04 455.829 158.91 454.809 155.01C461.799 155.49 468.999 154.68 475.239 159.36C477.159 160.8 480.069 160.2 482.469 159.57C486.129 158.61 489.279 158.49 493.029 160.47C496.869 162.54 501.459 160.05 505.629 159.48C511.209 158.73 516.609 158.25 522.069 159.78C528.429 161.55 534.999 160.86 541.479 161.1C547.749 161.34 548.409 159.99 547.599 153.75C547.329 151.56 542.829 144.96 551.439 148.5C553.509 149.34 554.739 147.3 555.129 145.29C555.939 141.3 556.719 137.28 557.379 133.26C557.649 131.61 556.899 130.5 555.069 130.32C552.789 130.08 551.049 130.86 549.729 132.69C548.679 134.16 548.979 135.84 548.829 137.46C548.739 138.27 548.739 139.17 547.719 139.41C546.429 139.71 545.799 138.78 545.439 137.82C544.749 135.9 544.599 133.71 543.639 131.97C542.169 129.36 539.439 128.79 536.709 129.57C530.619 131.31 524.529 129.45 518.439 129.6C517.749 129.63 517.059 128.73 517.269 127.74C524.349 126.51 531.309 124.68 538.629 125.19C542.319 125.46 542.499 122.64 542.619 119.67C542.949 111.39 541.359 102.99 545.769 95.0098C548.109 90.7798 550.599 86.5498 555.159 86.1898C559.689 85.8298 563.319 89.4597 566.169 93.1497C564.909 94.2897 563.889 95.7597 562.029 96.0597C561.189 95.9997 560.409 95.6997 559.779 95.1597C557.679 93.2997 555.489 91.8597 552.609 93.5697C550.179 95.0097 549.879 97.3497 549.729 99.9297C549.429 105.84 548.079 111.6 548.529 117.63C548.979 123.84 549.759 124.92 555.819 123.18C557.199 122.79 558.489 122.04 559.989 122.16C560.589 122.31 561.489 122.64 561.459 123.09C560.649 131.61 564.489 139.47 565.179 146.97C565.929 144.9 565.149 141.51 567.039 138.78C567.789 138.21 568.599 138.09 569.499 138.3C572.649 139.44 575.619 140.07 576.729 135.66C576.999 135.48 577.239 135.3 577.449 135.15Z" fill="#EDEDED"/>
<path d="M202.33 32.3699C194.26 34.7999 187.78 40.6199 179.47 42.7199C169.78 45.1499 160.39 42.0899 150.91 41.7599C140.38 41.3699 129.82 40.4698 119.26 39.8698C121.78 35.6698 126.01 34.2599 130.36 33.4799C136.48 32.3699 142.72 32.0699 147.88 32.0699C149.74 31.7999 148.54 30.5999 148.93 31.3199C149.08 31.6199 148.99 31.7999 148.6 31.8299C144.97 32.0399 141.37 32.3999 137.74 32.5199C135.64 32.5799 133 33.1198 132.58 29.7898C133.21 27.5098 135.07 26.4899 137.08 26.2799C141.73 25.8299 145.99 23.8499 150.58 23.1899C159.55 21.1799 168.64 20.4599 177.82 20.8499C180.67 20.9699 183.61 20.7899 185.23 23.8799C185.47 26.8799 183.55 28.0499 181.12 28.7999C178.66 29.3099 176.38 27.8999 173.95 28.1399C172.81 28.2599 171.13 28.0199 171.31 29.6999C171.46 31.1999 173.26 30.7199 174.34 31.0499C182.53 34.8899 190.6 33.9899 198.64 30.4799C200.26 30.3299 201.61 30.7499 202.33 32.3699Z" fill="#E5E4E4"/>
<path d="M401.649 167.4C395.979 171.27 390.129 174.27 383.049 171.09C382.299 168.57 384.249 167.67 386.439 166.05C384.639 166.23 383.439 166.32 382.209 166.2C367.659 166.35 353.109 167.55 338.529 166.71C318.669 166.5 298.809 167.34 278.949 166.23C277.539 166.14 276.099 166.59 274.659 166.65C272.799 166.92 270.969 166.83 269.139 166.62C261.999 164.61 254.619 166.98 247.449 165.39C243.999 164.64 240.399 163.92 244.209 159.3C249.699 157.08 255.639 158.85 261.219 157.5C268.089 158.94 275.049 157.38 281.919 158.16C293.739 158.1 305.559 158.73 317.379 158.04C320.439 157.86 323.529 157.86 326.559 158.28C327.219 158.34 327.849 158.46 328.479 158.64C332.079 160.14 335.619 159.06 339.219 158.46C341.409 158.1 343.629 157.74 345.849 158.4C346.479 158.58 347.079 158.82 347.649 159.06C352.959 159.69 358.209 159.21 363.519 158.73C370.389 158.1 377.259 159.93 384.189 159.39C386.859 159.3 389.499 159.42 392.169 159.42C393.129 159.42 394.089 159.42 395.079 159.48C396.309 159.51 397.539 159.66 398.709 159.96C399.669 160.2 400.599 160.53 401.529 160.86C402.639 161.25 404.019 161.64 404.139 162.99C404.289 164.64 402.999 165.42 401.559 165.78C398.589 166.53 402.609 166.8 401.649 167.4Z" fill="#EBEAEA"/>
<path d="M521.409 42.5101H520.899H520.389C515.589 40.6801 510.549 41.3101 505.599 41.2501C504.189 42.0901 503.169 42.0001 502.839 40.1701C503.319 39.4801 503.979 38.7301 504.759 38.8201C509.979 39.4201 512.199 35.7001 514.599 32.1901C516.549 30.6901 518.739 29.8801 521.259 30.0901C521.439 30.1201 521.649 30.3001 521.799 30.2401C522.099 30.1501 521.979 29.9101 521.409 29.6401C517.569 29.0101 515.709 24.8401 511.809 24.3901C507.969 23.4601 504.129 22.8301 500.169 23.7601C495.969 23.1301 491.739 23.1601 487.539 23.0401C486.519 22.9201 485.589 22.5601 484.779 21.9301C484.269 21.3601 484.209 20.7601 484.599 20.1301C491.769 19.6201 498.939 19.5901 506.109 20.1601C508.329 20.3401 510.549 20.1901 512.679 19.2601C513.969 18.7201 515.739 18.6901 516.099 17.1301C516.609 14.8501 513.519 15.6001 513.039 13.9801C518.049 10.6501 522.129 14.4901 526.269 15.6001C525.459 13.7101 521.649 14.8801 521.649 11.5801C528.699 12.4501 535.749 13.3801 541.959 17.2501C545.139 19.2301 548.529 20.7601 552.429 20.1601C556.839 19.5001 560.079 22.3201 563.769 23.7601C561.189 26.5501 558.039 25.7701 555.219 24.7201C550.959 23.1601 546.429 23.1601 542.139 21.9301C546.879 24.6601 552.339 24.5401 557.409 25.8301C559.689 26.4301 562.539 26.3401 562.689 29.8201C559.989 32.9101 556.359 31.5901 553.059 31.8601C551.709 31.8601 550.359 31.8001 549.009 31.4701C544.659 30.1801 540.279 30.4501 535.899 31.0801C535.389 31.1701 534.849 31.3501 534.309 31.2001C534.609 31.3501 534.999 31.3801 535.449 31.3801C536.739 31.4401 537.849 31.8601 538.479 33.0901C539.139 35.9701 537.699 37.2601 535.029 37.4401C532.839 37.5901 530.589 37.4101 528.459 38.1901C525.969 38.8801 524.049 40.5001 522.219 42.2401C521.949 42.3301 521.679 42.4201 521.409 42.5101Z" fill="#E0E0E0"/>
<path d="M448.625 27.6298C436.805 28.7398 425.645 24.2998 414.095 23.3998C400.925 22.3798 387.725 19.5598 374.435 22.6798C371.915 19.6198 373.235 16.7998 374.975 13.9798C376.025 12.9898 377.255 12.8098 378.605 13.1098C380.735 16.3798 384.245 15.8697 387.425 16.1997C392.315 14.2197 397.205 12.2997 402.485 11.6997C410.375 11.6397 418.295 10.7398 426.095 12.7198C427.865 13.1398 429.665 13.4398 431.495 13.4698C437.135 13.1998 442.565 14.1298 447.815 16.2298C449.195 17.4298 450.755 18.5998 449.705 20.8198C449.165 21.9598 449.045 25.2598 449.495 26.0098C449.375 26.6698 449.105 27.2098 448.625 27.6298Z" fill="#E9E9E9"/>
<path d="M448.627 27.6298C448.627 27.2098 448.627 26.7598 448.657 26.3398C449.077 25.9498 449.557 25.6498 450.097 25.4098C455.677 27.8998 459.937 22.5298 465.157 22.8598C469.297 22.6798 473.437 22.3498 477.547 21.8098C478.807 22.0198 480.367 22.4398 480.757 23.3998C483.697 30.8098 490.777 29.6398 496.507 31.2898C497.947 31.7998 499.447 32.2498 500.767 33.0598C502.027 34.0198 502.777 35.2498 502.567 36.8998C501.907 38.0698 501.907 39.1198 503.107 40.0198C503.677 40.9798 504.577 41.2198 505.597 41.2798C501.307 44.7898 496.417 42.3898 491.947 42.2998C485.197 42.1498 478.597 41.9998 471.967 43.4698C470.677 43.7398 469.177 43.1398 467.797 42.7798C466.687 42.4798 465.037 42.3598 465.427 40.6498C465.727 39.3298 467.077 38.7898 468.367 38.8498C470.197 38.9398 471.997 39.2398 473.797 39.5698C475.627 39.8998 478.147 40.7098 478.447 38.3998C478.777 35.8798 475.987 36.3898 474.307 36.3298C464.857 35.9998 456.247 33.2998 448.627 27.6298Z" fill="#E9E9E9"/>
<path d="M562.478 95.6399C562.628 93.1799 564.398 93.1198 566.198 93.1498C566.438 94.1098 566.348 95.4599 566.978 95.9399C568.118 96.8099 568.538 95.3698 569.228 94.6798C571.148 92.7298 571.208 90.2998 571.178 87.8098C571.178 86.6098 571.148 85.1698 572.738 84.8998C574.418 84.6298 574.568 85.9799 574.868 87.2099C577.568 98.5499 578.828 110.07 579.098 121.68C579.188 125.7 580.268 128.43 584.648 128.97C586.028 130.62 588.698 132.21 584.888 134.1C582.068 131.79 579.188 129.15 577.478 135.12L577.358 135.18C574.748 135.33 575.138 133.32 575.168 131.85C575.198 130.38 575.648 128.88 573.398 128.88C570.428 128.82 569.798 131.49 569.108 133.29C568.598 134.61 572.108 133.56 571.988 135.78C572.048 137.31 572.378 139.02 569.948 138.9C569.108 138.9 568.268 138.9 567.458 138.9C560.708 137.19 562.298 131.49 562.148 127.02C561.998 123.18 562.778 119.31 560.618 115.8C560.108 114.6 560.018 113.37 560.408 112.11C563.528 108.33 564.038 104.34 561.398 100.08C561.068 98.4298 561.188 96.8999 562.478 95.6399Z" fill="#E8E8E8"/>
<path d="M71.1688 36.2997C65.8588 40.6197 60.8188 35.1297 55.5988 35.7897C54.6688 35.9097 53.6488 35.3097 52.6588 35.0397C49.1788 33.0597 44.7988 33.8397 41.4688 31.3797C39.9088 31.2297 37.6888 31.9197 36.9988 30.2997C33.8488 23.0697 27.3088 24.4497 21.5488 23.7897C21.8488 21.4197 23.7688 21.3597 25.4788 20.9997C28.6588 20.6997 31.7788 20.9997 34.8388 21.8697C41.6788 22.8897 48.4888 24.2097 55.3888 25.0497C64.8388 26.6697 74.5888 24.9297 83.9788 27.4497C84.9988 27.6897 85.9588 28.0797 86.8888 28.4997C91.5688 30.6597 96.6388 28.7997 101.409 29.9397C103.419 30.7197 106.329 31.0197 106.209 33.7197C106.059 36.9597 102.759 36.4497 100.569 36.9597C98.8588 37.3797 97.0288 37.3497 98.6788 39.8397C94.6288 39.6597 91.4488 40.9497 90.1288 45.8397C88.8688 40.8897 86.9788 37.9497 81.6688 39.7497C80.2888 40.2297 78.5788 38.8797 77.4088 37.6497C77.9488 36.5697 79.2688 36.2697 80.1988 35.1297C76.7488 34.4097 74.0488 36.0597 71.1688 36.2997Z" fill="#E0E0DF"/>
<path d="M384.395 160.92C378.515 160.83 372.665 160.74 366.785 160.2C362.195 159.78 356.825 161.04 351.785 161.07C349.805 161.1 347.615 161.73 345.995 159.87C348.215 157.74 351.095 159.24 353.555 158.43C351.095 159.24 348.185 157.71 345.995 159.87C342.335 158.97 338.945 160.44 335.435 160.92C333.185 161.22 330.635 161.91 328.565 160.02C329.195 159.27 329.495 158.46 329.045 157.44C328.955 158.34 329.315 159.27 328.535 159.99C314.675 160.23 300.815 160.5 286.955 160.65C285.155 160.68 283.325 160.11 281.525 159.84C281.345 157.23 284.615 157.14 285.065 154.98C287.495 152.37 290.135 152.85 292.865 154.41C295.625 156 298.415 157.05 301.415 154.95C308.585 154.71 315.755 154.5 322.925 154.2C324.125 154.14 325.385 153.57 326.555 153.69C339.215 155.13 351.935 152.43 364.655 154.89C368.645 155.67 373.505 152.82 378.185 153.69C379.085 156.39 379.085 156.39 375.305 156.72C378.515 157.53 382.025 155.67 385.415 157.05C386.615 158.79 385.445 159.84 384.395 160.92Z" fill="#CCCBCB"/>
<path d="M371.886 22.7101C359.916 22.5301 347.946 20.34 335.976 22.62C324.456 20.01 312.966 20.6101 301.446 22.6501C294.696 24.9001 290.856 20.0701 286.536 16.5001C286.146 15.6601 286.416 14.8801 286.806 14.1301C289.626 8.79008 291.816 12.8701 294.186 14.5801C296.046 14.9101 297.876 14.88 299.736 14.7C307.506 12.18 315.816 14.6101 323.556 11.9701C326.076 11.1301 329.196 15.0001 331.356 10.9801C338.316 12.9601 345.156 11.2201 351.996 10.2301C353.196 10.0801 354.396 10.17 355.536 10.53C356.916 11.04 358.266 11.8201 358.536 13.3201C359.556 19.0201 363.456 18.9901 367.686 17.8201C369.306 17.3701 370.746 16.3801 372.096 17.8801C373.506 19.4101 373.446 21.1501 371.886 22.7101Z" fill="#E3E3E3"/>
<path d="M43.96 163.35C41.59 159.51 41.17 162.75 40.39 164.37C39.76 165.66 38.92 166.5 37.57 165.54C36.46 164.76 37.45 163.74 37.66 162.78C38.59 158.7 43.69 159.51 45.25 156.24C45.82 155.04 44.8 153.84 45.22 152.61C48.19 153.18 51.07 151.08 54.07 152.34C54.1 152.61 54.13 152.85 54.16 153.12C57.04 155.19 60.4 154.29 63.55 154.59C65.8 154.8 68.11 154.47 70.18 155.64C72.28 158.04 74.56 158.49 77.71 157.41C83.26 155.55 88.63 156.03 93.16 160.38C93.25 161.34 92.98 162.21 92.32 162.93C87.4 166.38 81.79 162.78 76.72 164.4C72.34 162.84 68.08 165.72 63.7 164.43C67.96 165.6 72.22 162.96 76.48 164.67C82.78 163.98 89.11 164.64 95.44 164.31C99.82 164.61 104.5 162.96 108.46 166.2C101.44 169.17 93.91 167.34 86.68 168C78.04 168.78 69.43 170.7 60.67 170.34C56.2 170.16 51.58 171.36 47.5 168.48C49.09 164.82 44.65 165.39 43.96 163.35Z" fill="#DCDCDB"/>
<path d="M130.539 8.93985C134.349 6.17985 138.579 4.49988 142.989 6.71988C148.899 9.68988 154.719 6.62988 159.999 5.87988C169.869 4.46988 179.919 5.06987 189.669 2.90987C198.819 0.899866 208.179 2.24988 217.479 1.37988C208.059 5.00988 197.889 5.06984 187.899 7.28984C190.569 11.3998 195.369 8.33987 199.179 12.5699C175.929 12.8699 153.849 11.3698 131.859 12.7798C132.339 11.1898 132.309 9.77985 130.539 8.93985Z" fill="#E3E3E3"/>
<path d="M385.568 157.56C381.008 159.81 376.448 155.67 371.828 157.86C372.848 155.34 374.798 156.36 376.298 156.3C378.308 156.21 378.938 155.58 378.158 153.69C390.968 153.63 403.718 153.66 416.558 154.35C423.218 154.71 429.668 153.42 435.338 158.25C436.628 159.36 438.608 158.4 439.568 156.84C443.918 149.88 449.288 151.86 454.838 154.95C456.788 157.41 462.128 154.68 462.278 159.84C461.048 161.64 458.558 161.73 457.358 163.56C456.098 163.56 454.838 163.56 453.548 163.56C453.098 162.84 452.588 162.27 451.658 162.21C433.688 160.74 415.658 160.44 397.628 160.05C396.758 160.02 396.098 160.59 395.468 161.13C394.628 161.13 393.758 161.1 392.918 161.1C390.908 159 387.308 160.17 385.568 157.56Z" fill="#E6E6E6"/>
<path d="M75.0079 82.2899C73.5379 85.3199 71.7079 88.38 68.2579 89.01C62.6179 90.03 62.3179 96.5399 57.6979 98.4299C57.5479 98.4899 57.3379 98.76 57.3679 98.85C59.6779 107.19 56.2579 116.67 61.7479 124.26C65.4679 129.42 63.9079 131.97 58.7779 133.92C55.9879 132.57 56.5879 137.52 53.9479 136.5C50.0179 130.77 53.2279 125.04 54.3079 119.52C55.0279 115.95 55.6579 113.67 51.3379 113.52C54.6979 107.19 55.2679 100.59 53.3779 93.9899C51.5479 87.6899 56.3179 83.16 65.1679 83.37C66.7879 86.43 68.2279 83.55 69.6679 83.16C71.4379 82.62 72.7879 80.0099 75.0079 82.2899Z" fill="#E0DFDF"/>
<path d="M41.4987 31.38C45.6387 31.35 49.6887 31.56 52.6887 35.04C49.0587 34.53 45.8787 35.85 42.6987 37.38C41.5587 37.92 40.2387 38.28 40.7787 39.87C41.2587 41.37 42.7287 41.31 43.8687 41.13C46.2687 40.74 48.6687 40.14 51.0087 39.51C52.2387 39.18 53.5887 38.67 54.1587 40.14C54.7887 41.79 53.1687 42 52.0887 42.45C46.2087 44.85 40.1187 46.38 33.8787 47.34C27.3087 48.33 25.5687 50.61 25.3587 57.18C25.1487 63.39 26.9487 69.78 24.2787 75.87C23.4387 75.99 22.5987 76.68 21.7587 75.84C21.6987 66.87 22.0587 57.9 19.6287 49.11C18.4587 44.85 21.3687 44.85 24.2187 44.91C26.2287 46.68 27.1887 45.54 27.9087 43.62C29.3787 41.37 34.1787 39.12 27.7287 36.96C26.4387 36.54 26.4687 34.77 27.0987 33.69C28.1187 32.04 29.7387 32.61 30.8787 33.45C34.4487 36.06 37.9587 36 41.4987 33.51C42.3687 32.94 41.7387 32.1 41.4987 31.38Z" fill="#E6E5E5"/>
<path d="M256.868 83.8199C250.148 88.6199 255.908 95.0998 254.678 100.65C254.258 102.51 248.138 113.4 246.398 113.58C243.428 113.88 241.988 111.54 241.118 109.32C240.338 107.31 240.428 105 240.068 102.33C242.858 103.02 242.678 108.27 246.578 106.2C249.878 104.43 249.638 100.98 250.298 98.1299C250.928 95.3099 247.838 94.7399 246.098 93.5699C245.078 92.9099 243.278 92.8199 242.738 94.0199C239.528 101.46 232.298 101.55 225.068 104.1C227.018 100.05 230.108 98.8199 232.658 97.4699C239.288 93.9599 242.318 88.2299 242.708 81.2699C242.948 76.8899 245.978 75.3599 248.528 73.2299C250.388 71.6999 250.958 73.9799 251.468 75.0899C252.548 77.4599 254.198 78.5999 256.808 78.2999C257.288 78.8099 257.378 79.3799 257.078 79.9799C255.848 81.7199 254.228 82.1399 252.248 81.5099C250.808 81.2699 250.358 78.5399 248.618 79.6799C247.658 80.3099 248.648 81.8399 248.888 82.9199C251.318 86.3099 253.538 81.5999 255.908 82.7099C256.538 82.8299 256.838 83.1899 256.868 83.8199Z" fill="#E2E1E1"/>
<path d="M177.606 167.28C169.026 165.39 160.326 166.32 151.656 166.14C147.696 164.13 147.726 164.19 150.276 161.7C150.876 161.1 149.646 159.72 150.966 159.12C153.846 157.71 156.906 157.26 160.056 157.68C160.956 157.98 161.646 158.52 161.856 159.48C161.766 160.2 161.076 161.49 161.226 161.46C164.436 160.8 168.306 162.54 170.826 159.09C181.176 157.86 191.496 157.35 201.666 160.41C202.626 160.71 203.646 161.52 204.546 160.95C208.836 158.28 212.766 160.92 216.846 161.61C220.656 163.35 226.086 161.07 228.486 166.29C223.866 168.57 218.826 167.61 214.116 167.31C205.626 166.74 197.196 167.43 188.736 167.37C187.056 165.87 189.456 164.58 189.036 163.17C184.116 161.52 181.356 165.72 177.606 167.28Z" fill="#C3C3C2"/>
<path d="M323.885 13.0199C320.525 16.1099 315.665 15.8698 312.275 15.3598C307.835 14.6998 304.145 15.9299 300.155 16.4699C292.175 10.7399 303.275 11.1598 302.915 7.28984C299.195 6.35984 296.465 7.07985 295.235 11.2798C294.695 13.1398 295.025 15.4799 292.595 16.3499C291.155 15.2399 290.765 9.77986 287.735 15.1799C283.895 9.05986 289.205 6.95985 292.655 4.01985C301.595 1.55985 310.775 0.56986 319.925 1.16986C323.225 1.37986 326.765 -1.44013 329.885 1.64987C329.105 2.99987 327.695 3.80988 326.915 5.12988C325.775 6.44988 324.425 7.25985 322.625 7.10985C320.315 6.44985 317.975 6.86986 315.605 7.07986C317.645 7.25986 319.685 7.37988 321.485 8.45988C323.075 9.56988 323.915 11.0699 323.885 13.0199Z" fill="#B3B3B3"/>
<path d="M150.43 159.99C151.36 160.65 152.32 161.28 153.28 161.94C152.41 164.55 149.8 161.07 148.72 163.44C149.65 164.31 150.67 165.24 151.66 166.14C146.65 165.63 141.46 167.37 136.63 164.76C129.46 162.84 122.29 163.62 116.53 164.16C114.28 164.67 115.18 165.87 114.94 165.09C114.88 164.88 114.94 164.76 115.12 164.7C119.95 163.8 124.81 162.21 129.52 165.18C122.56 167.19 115.45 165.6 108.43 166.2C103.42 166.17 98.4098 166.11 93.3698 166.08C93.1298 164.85 92.2598 163.8 92.2598 162.48C92.2598 161.64 92.2598 160.8 92.2598 159.96C92.7998 159.45 93.4298 159.09 94.1198 158.88C105.7 157.05 117.34 158.01 128.95 158.16C134.23 158.22 139.51 156.75 144.82 157.98C146.8 158.4 148.96 158.22 150.43 159.99Z" fill="#D3D3D3"/>
<path d="M150.428 159.99C134.258 159.87 118.118 159.9 101.948 159.51C99.1879 159.45 96.5179 162.24 93.7879 159.69C92.6779 158.28 90.2179 157.65 91.1179 155.07H91.0879C96.4279 153.21 101.798 156.09 107.138 155.07C115.958 154.68 124.808 155.85 133.478 155.49C144.548 155.04 155.498 156.87 166.508 156.18C165.848 160.5 162.398 157.83 160.328 158.64C157.028 159.09 153.728 159.54 150.428 159.99Z" fill="#898989"/>
<path d="M98.6174 39.8698C97.2374 38.0698 94.6874 39.5398 92.8574 37.8298C96.6074 34.7998 101.137 35.5498 105.277 34.5598C105.067 31.9798 102.727 32.6098 101.797 31.4998C102.067 30.9898 102.457 30.5698 102.967 30.2698C106.627 28.3498 110.797 31.9198 114.427 29.2498C116.317 29.4898 118.837 32.6998 119.647 28.0798C119.587 26.8798 119.767 25.7698 120.637 24.8998C122.797 24.1498 124.747 24.6598 126.607 25.7698C126.937 29.8798 129.607 30.5398 133.027 30.0898C139.177 32.0998 145.387 31.8298 151.837 31.4098C140.737 33.3598 129.217 33.7198 119.317 39.8398C112.387 40.1398 105.517 38.8798 98.6174 39.8698Z" fill="#9B9B9B"/>
<path d="M130.537 8.93994C132.697 9.05994 134.827 9.17997 137.077 9.29997C136.477 12.66 132.847 10.62 131.887 12.81C130.417 13.53 129.487 14.46 130.597 16.17C132.097 18.45 134.707 18.3899 136.687 18.1199C143.887 17.0999 151.057 17.9999 158.227 17.6999C160.207 17.6099 162.397 17.1599 164.077 18.8699C159.337 22.0199 153.817 21.24 148.777 21.06C145.297 20.94 143.767 21.5399 142.927 24.5999C141.727 25.1699 140.467 25.2299 139.207 25.0199C134.647 22.3199 128.827 24.69 124.417 21.39C124.087 20.13 125.707 17.76 122.437 18.09C120.517 18.27 118.537 18.03 116.617 17.55C109.087 16.5 101.887 13.32 94.0566 14.13C93.4266 13.95 92.8566 13.65 92.3466 13.23C91.8666 12.66 91.8666 12.0899 92.3766 11.5199C105.067 10.6499 117.787 9.77994 130.537 8.93994Z" fill="#D8D8D7"/>
<path d="M274.175 164.88C286.835 164.88 299.465 164.85 312.125 164.85C321.335 164.85 330.545 164.88 339.755 164.91C340.775 165.63 341.855 166.41 340.805 167.76C339.545 169.38 337.895 169.74 336.065 168.6C323.975 168.24 311.795 168.03 299.795 168.54C288.515 169.02 277.235 171.06 265.865 171.09C264.155 171.09 261.425 171.42 264.425 168.6C265.445 167.88 266.615 168.09 267.755 168.12C269.165 168.12 270.635 168 272.015 168.24C275.495 168.81 274.235 166.5 274.175 164.88Z" fill="#BBBABA"/>
<path d="M401.645 167.4C401.045 167.31 400.355 167.34 399.845 167.07C398.555 166.32 395.675 167.49 396.035 165.12C396.425 162.54 398.555 164.34 399.965 164.61C401.225 164.85 402.425 164.91 403.175 163.26C401.825 162.63 400.445 162 399.095 161.34C401.945 158.91 405.365 159.9 408.485 160.02C420.095 160.47 431.705 160.77 443.285 161.22C445.265 161.31 448.055 160.17 448.625 163.62C447.155 164.7 442.445 161.34 444.215 166.98C444.665 168.45 443.165 167.94 442.175 167.97C429.995 168.18 417.725 170.19 405.665 166.83C404.135 166.38 402.935 166.77 401.645 167.4Z" fill="#E6E6E6"/>
<path d="M142.779 23.7599C144.429 18.9899 138.369 23.1899 138.819 18.8699C147.039 18.8699 155.559 18.8699 164.079 18.8699C178.089 18.0899 192.099 22.4999 206.109 18.9299C207.009 22.0199 205.149 23.8799 202.659 23.9699C198.999 24.0899 195.789 26.0099 192.189 25.9499C190.089 26.8499 187.959 27.2699 185.769 26.1299C185.259 25.8299 184.929 25.4099 184.749 24.8699C183.189 22.3199 180.549 22.7099 178.179 22.6199C168.819 22.1999 159.549 23.1599 150.399 25.1699C148.149 23.1899 144.909 26.5799 142.779 23.7599Z" fill="#939393"/>
<path d="M263.199 10.1998C267.009 5.27984 273.429 8.24987 277.929 5.39987C279.609 4.13987 281.559 4.97985 283.359 4.76985C286.959 7.67985 284.289 9.50988 282.189 11.4599C279.369 14.0699 274.959 14.0999 272.499 17.3399C265.509 19.1999 258.189 17.9999 251.199 19.7999C247.899 16.7099 247.929 13.9199 251.589 11.9699C255.189 10.0499 258.999 8.63984 263.199 10.1998Z" fill="#818181"/>
<path d="M160.357 158.67C161.857 156.45 165.097 158.55 166.537 156.21C183.427 156.66 200.347 157.14 217.237 157.59C218.647 159.24 218.557 160.92 217.417 162.66C216.187 163.29 215.947 167.97 213.427 163.26C211.297 159.27 207.877 161.07 205.057 162.9C203.497 163.92 203.287 164.97 201.547 162.3C200.047 159.96 195.277 160.26 191.827 160.2C184.627 160.05 177.427 160.02 170.227 159.93C167.377 161.7 164.527 162.03 161.677 159.93C161.227 159.48 160.777 159.06 160.357 158.67Z" fill="#888989"/>
<path d="M267.037 169.65C266.167 169.29 265.297 168.96 264.427 168.6C254.527 168.15 244.627 167.73 234.757 167.28C233.017 167.19 231.067 167.97 229.627 166.32C227.047 163.71 225.847 160.89 228.397 157.56C230.047 157.5 231.697 157.47 233.377 157.41C234.847 159.45 236.917 158.55 238.807 158.49C240.937 158.43 243.187 158.01 244.747 160.11C244.177 161.34 242.767 163.05 245.197 163.41C249.397 164.01 253.807 164.76 257.917 164.1C261.967 163.47 265.597 164.04 269.377 165C270.007 167.28 268.207 168.33 267.037 169.65Z" fill="#B0B0B0"/>
<path d="M1.95753 16.4399C-0.95247 11.8499 0.00753403 9.17993 5.13753 9.77993C9.84753 10.3199 14.5275 10.1999 19.0575 9.86993C27.2775 9.29993 33.7875 14.58 41.4975 15.21C41.9175 15.87 41.9475 16.5299 41.4975 17.1899C35.5575 21.2999 28.8075 20.7 22.1175 20.64C20.7375 20.58 19.3875 20.3999 18.2175 19.5899C17.4375 18.8999 17.2275 18.0299 17.4975 17.0399C18.1875 16.0799 19.0275 15.2099 19.4775 13.9499C17.5275 13.4699 15.5775 13.6199 13.6575 13.2899C14.4375 13.6199 13.1475 13.3199 13.5975 13.6199C15.0375 14.5499 18.5775 12.9599 17.3175 16.9499C17.2275 17.2799 16.6875 17.43 16.3275 17.64C11.6175 16.8 6.60753 18.8399 1.95753 16.4399Z" fill="#C6C6C6"/>
<path d="M251.646 18.84C258.306 14.73 265.866 17.85 272.826 16.26C275.736 14.58 278.616 14.28 281.496 16.32C281.016 21.78 278.946 24.39 272.676 23.04C268.896 22.23 264.636 23.25 260.646 23.76C256.566 24.27 252.876 23.61 249.456 21.45C248.526 19.2 251.316 20.07 251.646 18.84Z" fill="#DEDEDE"/>
<path d="M218.53 16.4398C222.34 16.9198 225.94 15.6898 229.66 15.2998C231.61 18.8098 235.06 15.4198 237.43 16.9798C239.74 18.2098 241.72 19.6198 240.76 22.7398C230.71 26.0698 220.3 27.5698 209.83 28.8598C209.08 26.6698 212.32 26.3998 211.99 24.3898C212.86 21.6898 217.6 24.2098 217.54 20.2498C217.99 19.0198 217.75 17.5798 218.53 16.4398Z" fill="#ABAAAA"/>
<path d="M336.068 168.57C338.228 168.27 341.498 169.11 339.758 164.88C353.258 165.75 366.698 164.88 380.168 164.07C381.098 164.01 382.088 164.58 383.048 164.88C383.978 167.4 382.088 168.51 380.588 169.8C366.428 170.34 352.268 168.36 338.108 169.65C337.478 169.74 336.728 168.96 336.068 168.57Z" fill="#D6D6D6"/>
<path d="M218.53 16.4399C219.25 17.6999 219.25 18.93 218.5 20.16C217.39 21.75 215.86 22.53 213.94 22.71C212.59 22.83 211.6 23.4 212.29 25.05C213.73 25.38 214.75 25.89 212.95 27.15C211.99 27.81 210.91 28.2899 209.86 28.8599C206.98 29.2499 204.16 29.6999 202.36 32.3699C201.16 32.0699 199.96 31.77 198.76 31.47C198.52 31.35 198.25 31.2 198.01 31.08C195.1 29.31 191.83 27.84 191.26 23.88C195.16 24.63 198.43 21.0899 202.66 22.6199C204.58 23.3099 205.33 20.5499 206.14 18.9299C210.25 18.0899 214.39 17.2499 218.53 16.4399Z" fill="#858585"/>
<path d="M448.686 163.62C446.136 161.58 443.136 162.6 440.346 162.51C426.606 162.06 412.866 161.73 399.126 161.34C397.896 161.28 396.666 161.22 395.436 161.16C395.796 158.07 398.196 158.7 400.146 158.67C416.316 158.4 432.426 158.79 448.506 160.56C450.036 160.74 451.296 160.17 452.676 160.08C453.816 159.99 455.436 159.63 455.436 161.4C455.436 162.12 454.206 162.87 453.516 163.59C451.926 163.62 450.306 163.62 448.686 163.62Z" fill="#C0C0C0"/>
<path d="M477.096 22.6797C473.226 25.5297 468.906 23.8497 464.736 23.9397C459.186 21.0597 454.326 22.6197 449.796 26.2797C449.406 26.3097 449.016 26.3098 448.626 26.3098C448.386 24.3598 443.406 22.4697 448.716 20.2797C450.006 19.7397 447.486 18.6898 447.516 17.5498C449.016 15.4198 451.866 17.0397 453.636 15.4497C452.046 13.1697 447.876 15.4497 447.276 11.6997C452.256 11.6397 457.236 11.5797 462.216 11.4897C464.346 13.1097 460.986 14.7897 462.246 16.4097C464.706 17.2197 467.196 18.0597 469.656 18.8697C471.966 20.8497 475.536 17.7897 477.576 20.8197C477.756 21.5997 477.576 22.1997 477.096 22.6797Z" fill="#BBBABA"/>
<path d="M547.749 164.76C549.789 164.43 551.829 164.1 553.869 163.77C557.859 165.9 562.059 165.42 566.229 164.73C569.289 164.22 572.229 163.68 574.749 166.08C572.919 167.97 570.519 167.28 568.359 167.28C555.909 167.34 543.369 168.06 531.009 167.04C520.869 166.2 510.549 167.7 500.559 164.94C502.059 161.49 504.699 163.32 507.009 163.5C515.739 161.85 524.259 164.01 532.869 164.94C537.819 164.82 542.769 165 547.749 164.76Z" fill="#B6B6B5"/>
<path d="M61.2965 15.0298C67.1465 15.0898 72.8165 12.0898 78.7565 14.1598C81.0665 14.3398 84.0065 12.7498 85.0865 16.4098C85.1765 17.0098 83.6765 17.5498 84.3665 17.5798C87.9665 17.6398 91.7165 16.2598 94.9865 19.0198C93.6665 23.5498 88.7165 20.8198 86.3765 23.3398C79.6865 25.2298 73.0265 22.2598 66.3365 23.1298C63.7265 23.4598 60.9965 22.8598 58.6865 24.5998C57.0065 25.1098 55.5365 24.9298 54.5465 23.2798C54.3365 22.7098 54.2765 22.1098 54.3365 21.5098C56.0765 17.5798 59.7065 18.9598 62.6765 18.5698C63.0965 18.5098 63.5765 18.5998 63.7865 18.3598C63.9965 18.1198 63.6665 17.8798 63.1265 17.7898C62.7365 17.7298 62.3765 17.5198 62.0165 17.3098C61.2965 16.6498 60.6965 16.0198 61.2965 15.0298Z" fill="#A6A6A6"/>
<path d="M379.359 13.9498C378.129 13.9798 376.899 14.0098 375.669 14.0398C373.779 15.8098 371.529 15.8098 369.519 14.6098C366.969 13.1098 364.119 13.1998 361.449 12.3598C358.989 8.75985 361.959 8.00985 364.329 7.10985C365.529 6.62985 367.059 8.12988 368.169 6.62988C373.719 8.63988 379.659 7.19987 385.239 8.72987C390.129 10.8899 395.469 10.5899 400.569 11.7599C401.109 12.0299 401.529 12.4499 401.799 12.9899C397.389 15.2699 391.569 14.3399 388.119 18.8999C385.869 16.0799 383.829 12.8698 379.359 13.9498Z" fill="#B6B5B5"/>
<path d="M352.236 11.4298C345.276 12.7198 338.346 16.1998 331.296 11.7898C328.896 10.1698 324.516 13.6798 323.436 8.6998C324.276 7.1698 325.746 6.62983 327.336 6.29983C331.986 5.63983 336.576 6.44982 341.196 6.74982C342.876 6.29982 344.826 6.68984 346.146 5.12984C346.476 4.76984 346.836 4.43983 347.196 4.13983C354.066 3.02983 360.516 5.21981 367.086 6.50981C363.456 7.25981 360.006 9.35982 356.106 8.48982C353.436 7.85982 353.376 10.2598 352.236 11.4298Z" fill="#B6B5B5"/>
<path d="M521.647 11.5799C524.197 13.0799 527.227 13.7999 530.137 16.8599C523.627 17.7299 518.707 12.7799 513.037 14.0099C503.707 11.3099 494.197 10.8599 484.567 11.4899C483.547 7.97991 484.897 6.86992 488.287 7.79992C499.717 6.38992 510.517 10.4699 521.647 11.5799Z" fill="#CFCFCF"/>
<path d="M360.788 11.52C366.248 9.41996 370.418 14.94 375.668 14.04C375.278 16.92 374.888 19.83 374.468 22.71C373.628 23.91 372.758 22.89 371.918 22.71C371.618 19.74 371.678 20.34 368.198 20.76C365.558 21.09 362.738 19.32 359.948 19.11C355.268 18.72 357.098 15.96 357.398 13.5C357.458 12.99 356.408 12.33 355.838 11.76C357.398 10.08 359.048 10.05 360.788 11.52Z" fill="#DDDCDC"/>
<path d="M507.005 163.53C504.845 163.98 502.325 162.78 500.555 164.97C486.125 165.27 471.725 164.61 457.355 163.62C456.725 159.36 459.695 159.93 462.275 159.9C463.865 161.85 466.055 161.07 468.035 161.13C479.675 161.58 491.345 161.97 503.015 162.36C504.455 162.42 505.865 162.42 507.005 163.53Z" fill="#BEBDBD"/>
<path d="M562.536 28.86C555.996 25.86 548.496 27.09 541.866 24.24C540.756 23.76 538.866 25.92 538.236 23.79C537.906 22.65 538.476 20.85 539.286 19.8C540.606 18.09 542.136 19.65 543.666 19.98C550.296 21.51 556.686 24.48 563.766 23.73C567.906 24.33 572.196 23.28 576.216 24.99C576.066 25.26 575.916 25.56 575.736 25.83C571.476 29.73 567.006 24.9 562.686 26.01C561.876 26.25 562.626 27.3 562.446 26.49C562.356 26.19 562.506 26.07 562.836 26.01C564.996 25.5 566.886 25.5 567.006 28.47C565.746 31.53 564.156 30.42 562.536 28.86Z" fill="#929292"/>
<path d="M301.389 154.98C299.739 158.46 297.279 156.9 294.729 156.27C291.639 155.52 288.459 152.82 285.249 156.09C278.229 159.39 270.819 157.68 263.529 157.89C262.089 157.41 260.379 157.53 259.299 156.12C268.809 154.17 278.289 152.13 287.859 150.39C289.449 150.09 292.269 150.78 292.869 151.89C294.969 155.73 298.239 154.92 301.389 154.98Z" fill="#EBEAEA"/>
<path d="M249.366 126.51C256.086 125.73 261.666 121.23 268.836 121.38C258.816 126.03 251.226 134.97 239.676 136.83C238.716 135.3 239.736 134.67 240.906 134.1C243.696 132.72 239.496 133.38 240.426 132.51C241.446 127.5 247.116 129.57 249.366 126.51Z" fill="#A8A8A8"/>
<path d="M605.798 33.7499C598.718 29.6699 591.008 31.5899 583.538 31.3499C583.028 30.0599 583.898 29.1599 584.828 29.1299C589.328 28.9499 586.028 26.6699 585.968 25.2599C591.338 24.8099 596.708 24.3599 602.078 23.9099C605.888 24.9299 607.388 28.0499 608.498 31.2899C609.218 33.4799 608.678 35.0999 605.798 33.7499Z" fill="#B6B6B6"/>
<path d="M21.7246 75.8398C22.5646 75.6598 23.4046 74.5498 24.2146 75.8698C26.1646 87.5398 27.7846 99.2097 24.1846 110.88C21.8746 99.2997 23.7346 87.4498 21.7246 75.8398Z" fill="#D8D8D8"/>
<path d="M281.53 16.3197C278.65 16.2897 275.74 16.2897 272.86 16.2597C272.29 10.1697 278.29 12.7797 280.81 10.5897C282.64 8.99974 284.32 8.09976 283.96 5.45976C286.81 4.52976 289.93 5.33973 292.69 4.01973L292.66 3.98975C293.44 4.73975 294.07 5.87973 292.69 6.26973C287.95 7.61973 287.44 11.0997 287.74 15.1497C287.35 15.5997 286.93 16.0198 286.54 16.4698C284.86 15.8998 283.24 14.8197 281.53 16.3197Z" fill="#9B9B9B"/>
<path d="M447.307 11.7597C449.197 13.5897 451.597 12.5697 453.757 12.8697C454.957 13.0197 457.357 12.2997 456.487 14.5797C456.097 15.5997 456.756 19.3197 453.036 17.8197C451.446 17.1897 449.407 17.6397 447.547 17.6097C442.117 16.9497 436.957 14.6097 431.347 15.1497C429.487 12.1197 432.757 12.5997 433.807 11.5797L433.717 11.3697C437.107 10.1697 440.377 13.3197 443.767 11.6697C444.937 11.6997 446.137 11.7297 447.307 11.7597Z" fill="#878787"/>
<path d="M75.0091 82.2896C72.1891 83.7296 69.3991 85.2596 66.5191 86.5496C65.3491 87.0596 63.5791 87.7796 63.0091 85.8296C62.5891 84.3596 64.5691 84.2996 65.1691 83.3396C73.3891 79.1996 81.5791 75.0296 89.7991 70.8896C91.4191 69.7796 92.5591 70.5596 93.3391 71.9396C94.1191 73.3496 93.0391 74.2196 92.0491 74.9696C89.5291 76.8596 86.4991 77.4896 83.5591 78.2996C80.6791 79.6196 77.8291 80.9396 75.0091 82.2896Z" fill="#858585"/>
<path d="M240.76 22.7396C240.13 20.6096 238.69 19.1396 237.01 17.7896C238.09 15.7196 240.04 15.4196 242.11 15.2396C243.61 15.1196 245.02 14.8496 244.42 12.7496C250.66 11.6996 256.39 6.95963 263.2 10.2296C259.54 10.1996 255.88 10.3796 252.79 12.6896C250.54 14.3696 247.99 16.0796 251.65 18.8696C250.93 19.7396 250.18 20.6096 249.46 21.4796C246.55 21.8696 243.64 22.3196 240.76 22.7396Z" fill="#969696"/>
<path d="M426.185 14.2498C418.145 12.3898 409.895 13.9798 401.825 12.9898L401.465 12.5398C400.565 10.6198 399.005 11.1898 397.385 11.2798C395.645 11.3698 393.185 12.3598 392.945 9.14984C402.485 6.65984 411.965 10.0499 421.475 9.29985C421.625 12.2999 427.085 10.2598 426.185 14.2498Z" fill="#B6B5B5"/>
<path d="M301.445 22.6198C302.165 20.9098 303.545 20.0999 305.315 20.1599C315.185 20.4899 325.085 17.9098 334.865 20.6998C335.375 20.8498 335.615 21.9599 335.975 22.5899C324.455 22.6199 312.965 22.6198 301.445 22.6198Z" fill="#CECDCD"/>
<path d="M91.1184 155.07C91.8384 156.69 93.7884 157.65 93.7884 159.69C93.2784 159.78 92.7984 159.84 92.2884 159.93C90.3684 158.97 88.2084 159.87 86.0184 158.58C83.9784 157.35 81.0384 157.11 78.1284 158.91C75.1284 160.8 71.3784 161.25 69.8184 156.42C70.7484 155.25 71.9784 155.64 72.8184 155.73C70.8084 155.4 70.6584 155.25 70.7784 153.18C74.2284 153.45 77.7384 152.52 81.1284 153.78C84.2784 155.58 87.7884 154.68 91.1184 155.07Z" fill="#B9B8B8"/>
<path d="M259.296 156.15C260.526 156.27 261.756 156.36 262.986 156.48C263.436 157.68 262.836 158.34 261.786 158.76C256.236 161.04 250.356 159.27 244.686 160.14C241.446 159.87 238.236 159.78 235.026 160.38C232.116 160.92 232.716 159.12 233.346 157.44C237.066 157.02 240.786 156.6 244.506 156.18C247.416 154.98 250.296 156.87 253.206 156.3C255.216 156.24 257.256 156.18 259.296 156.15Z" fill="#999898"/>
<path d="M347.167 4.13984C347.167 4.52984 347.167 4.91984 347.197 5.30984C346.207 7.37984 342.517 4.52984 342.277 7.97984C337.267 9.38984 332.317 7.01985 327.307 7.79985C326.617 6.65985 327.577 4.97981 326.107 4.10981C326.287 1.61981 328.147 1.70984 329.917 1.64984C335.827 1.40984 341.557 2.39984 347.167 4.13984Z" fill="#A5A4A4"/>
<path d="M228.336 157.56C227.916 160.59 229.056 163.41 229.566 166.32L229.026 166.26L228.486 166.29C224.766 165.06 221.076 163.83 217.356 162.6C217.296 160.92 217.236 159.24 217.176 157.56C220.926 157.56 224.646 157.56 228.336 157.56Z" fill="#9A9999"/>
<path d="M45.1891 152.61C45.7291 154.14 48.6991 153.12 48.2491 155.31C47.9791 156.57 46.2991 156.09 45.2191 156.24C38.3491 156.51 31.7491 153.96 24.7891 154.32C31.5091 151.08 38.3791 152.13 45.1891 152.61Z" fill="#C4C4C4"/>
<path d="M466.955 97.4399C471.725 90.7799 479.405 89.1899 486.545 86.6099C481.355 92.4299 474.305 95.0999 466.955 97.4399Z" fill="#888888"/>
<path d="M177.607 167.28C180.247 162.78 183.757 159.96 189.367 161.22C190.657 161.52 192.577 160.62 193.027 162.42C193.447 164.19 191.647 164.55 190.327 165.03C189.187 165.42 188.917 166.35 188.767 167.37C185.047 167.34 181.327 167.31 177.607 167.28Z" fill="#D7D7D6"/>
<path d="M105.698 83.1897C102.008 86.9397 96.6383 87.3297 92.3183 89.8497C91.2083 90.5097 90.4283 90.3297 89.7383 89.4297C88.8383 88.2297 90.1883 87.7197 90.6383 87.0297C92.1983 84.7497 94.6883 83.9097 97.1483 83.0697C99.0983 80.6097 101.648 79.6497 104.678 80.2797C106.478 80.6397 107.228 81.5997 105.698 83.1897Z" fill="#757474"/>
<path d="M20.4089 24.9898C20.4389 25.1998 20.4989 25.4097 20.4389 25.5897C19.4789 28.4397 23.2289 32.5797 20.0489 33.8697C17.3489 34.9797 17.1989 30.0898 15.6089 28.0798C13.7489 25.7098 11.6789 26.4597 9.57894 26.5197C8.10894 26.5797 6.06894 28.3497 5.40894 26.0397C4.74894 23.7297 7.44895 24.1497 8.73895 23.5197C9.63895 23.0997 10.6589 22.8897 11.6189 22.5897C14.8289 22.4997 17.6789 23.5198 20.4089 24.9898Z" fill="#DCDCDC"/>
<path d="M585.967 25.2899C587.497 26.9699 590.407 26.3099 591.697 28.9199C589.207 30.4799 585.697 28.9499 583.537 31.3499C583.117 31.3199 582.697 31.2899 582.277 31.2599C579.997 30.2099 576.847 30.9299 575.557 27.8999C575.257 26.9999 575.287 26.1599 575.887 25.3799L576.217 24.9899C579.487 23.8199 582.727 25.0199 585.967 25.2899Z" fill="#909090"/>
<path d="M596.018 163.38C603.398 163.05 610.778 162.72 618.158 162.42C618.668 163.95 620.498 166.38 616.778 165.81C609.338 164.61 602.018 166.44 594.638 166.14C594.038 164.67 594.818 163.92 596.018 163.38Z" fill="#9D9D9D"/>
<path d="M360.789 11.5199C359.139 11.5799 357.489 11.6699 355.839 11.7299C354.639 11.6399 353.439 11.5199 352.239 11.4299C351.669 7.67992 349.509 2.87993 357.039 6.98993C359.559 8.36993 363.699 6.74992 367.089 6.50992C367.449 6.53992 367.839 6.56993 368.199 6.65993C368.529 7.76993 369.039 9.65992 367.119 8.84992C363.729 7.46992 362.229 9.11992 360.789 11.5199Z" fill="#888888"/>
<path d="M244.389 12.75C245.529 13.02 247.299 12.51 247.599 13.92C248.019 15.81 246.279 16.17 244.839 16.41C242.229 16.89 239.619 17.34 237.009 17.79C235.089 17.37 233.469 18.57 231.699 18.84C228.279 19.38 228.429 17.55 229.629 15.27C234.579 14.46 239.619 14.43 244.389 12.75Z" fill="#7D7D7D"/>
<path d="M584.885 134.13C586.805 132.33 584.465 130.71 584.645 129C585.125 128.64 585.605 128.25 586.055 127.89C589.025 125.46 592.655 127.53 595.835 126.48C596.795 126.48 598.745 125.13 598.235 127.44C597.575 130.5 588.275 134.88 584.885 134.13Z" fill="#999999"/>
<path d="M596.017 163.38C595.567 164.28 595.117 165.21 594.667 166.11C588.487 166.86 582.307 166.44 576.127 165.93C575.287 165.45 574.207 165.09 574.927 163.74C581.947 163.44 588.967 162.63 596.017 163.38Z" fill="#999999"/>
<path d="M240.518 132.51C241.478 132.66 242.468 132.78 243.518 132.96C242.768 135.03 240.068 134.76 239.678 136.83C238.028 140.79 233.288 138.42 230.948 141C230.828 141.15 229.748 140.73 229.448 140.34C228.758 139.35 229.208 138.3 230.078 137.73C232.748 135.96 235.538 134.37 238.268 132.69C238.958 132.03 239.738 131.97 240.518 132.51Z" fill="#979797"/>
<path d="M605.799 33.7499C606.789 33.5699 608.439 32.8199 607.629 32.1599C604.899 29.9099 604.929 25.9499 602.049 23.9099C603.699 23.9099 605.349 23.8799 606.999 23.8799C609.579 23.9699 613.149 25.0499 611.319 27.5099C609.849 29.5499 612.279 36.2099 605.799 33.7499Z" fill="#DCDCDC"/>
<path d="M574.899 163.74C575.289 164.46 575.709 165.21 576.099 165.93C575.649 165.99 575.199 166.05 574.719 166.08C569.379 166.08 564.069 166.17 558.729 166.08C556.839 166.05 554.379 166.83 553.809 163.77C560.889 165.9 567.879 160.98 574.899 163.74Z" fill="#ADADAD"/>
<path d="M129.545 165.18C124.265 165.18 118.985 165.18 113.705 165.18C119.825 161.94 126.305 162.33 132.755 162.42C134.585 162.45 135.875 163.11 136.655 164.76C134.345 166.14 131.915 165.45 129.545 165.18Z" fill="#AAAAAA"/>
<path d="M61.2982 15.0298C61.7182 15.5398 62.1382 16.0198 62.5582 16.5298C63.5182 17.7598 65.9182 16.2898 66.4582 18.8098C63.9082 20.3398 61.0582 19.1698 58.4182 19.5898C57.0982 19.7998 54.9382 18.6598 54.9082 21.4198C54.9982 21.8098 55.0282 22.2298 54.9682 22.6198C52.6882 24.3898 51.1882 22.3198 49.4182 21.5098C48.9082 21.1798 48.4882 20.7598 48.0982 20.2798C46.0582 14.7898 51.0682 17.6398 52.6582 16.4398C55.3882 14.9398 58.3882 15.2998 61.2982 15.0298Z" fill="#676666"/>
<path d="M501.85 96.8996C497.2 98.8196 493.72 103.71 487.27 102.81C490.45 98.0996 495.43 97.0196 499.36 94.4096C500.59 93.5696 502 93.3296 502.93 94.6196C503.62 95.5196 502.69 96.3296 501.85 96.8996Z" fill="#818181"/>
<path d="M488.287 7.79994C486.007 7.97994 484.627 9.05993 484.567 11.4899C481.357 9.77993 478.267 10.1099 475.147 11.8499C474.007 12.4799 472.177 13.5899 471.607 11.5199C471.127 9.71991 473.017 9.14993 474.457 9.14993C479.137 9.14993 483.127 2.27994 488.287 7.79994Z" fill="#DADAD9"/>
<path d="M392.949 9.14993C395.139 11.3999 397.359 9.44995 399.549 9.20995C402.699 8.84995 403.029 10.1999 401.469 12.5699C396.099 14.3399 391.179 10.4399 385.809 11.2799C384.669 11.4599 385.419 9.62993 385.269 8.72993C387.969 6.47993 390.399 8.66993 392.949 9.14993Z" fill="#959596"/>
<path d="M20.4058 24.9901C16.8658 26.4901 14.4058 24.06 11.6758 22.62C12.1258 22.2 12.5758 21.7501 13.0258 21.3301C14.3458 19.8601 15.0658 17.16 17.9758 18.87C19.2658 18.96 20.5858 19.0501 21.8758 19.1701C22.7158 20.7001 25.6858 19.8601 25.5358 22.5001C24.2158 22.9201 22.5358 22.29 21.5458 23.79C21.1558 24.18 20.7958 24.6001 20.4058 24.9901Z" fill="#9A9A9A"/>
<path d="M83.5293 78.27C85.7793 76.47 88.0593 74.79 90.9093 73.95C91.6893 73.71 93.2493 73.3201 92.4993 72.0301C92.1093 71.3401 90.7293 71.25 89.7993 70.89C91.5393 68.94 93.1593 69.72 94.2693 71.43C95.3493 73.05 96.7593 73.3501 98.4393 73.3501C98.5893 76.5301 95.2593 76.3201 93.9093 78.0301C91.2393 78.6601 89.3493 81.96 86.0193 80.43C85.9293 78.87 84.8493 78.45 83.5293 78.27Z" fill="#DFDEDE"/>
<path d="M71.166 36.3C72.186 34.08 74.256 34.05 76.266 33.57C78.426 33.06 80.496 31.7999 82.536 33.6899C83.346 34.4399 83.736 35.5799 83.046 36.4199C81.546 38.2799 79.266 37.26 77.316 37.65C75.306 37.11 72.876 38.31 71.166 36.3Z" fill="#BDBCBC"/>
<path d="M501.847 96.8996C503.317 93.7796 500.857 94.5896 499.387 94.4096C503.557 92.3696 507.727 90.3296 511.867 88.3196C513.517 87.5696 515.197 86.6696 515.557 89.5796C511.747 93.3896 506.407 94.4096 501.847 96.8996Z" fill="#969696"/>
<path d="M84.8498 16.4698C83.3198 14.3998 80.2898 16.1997 78.7598 14.1597C79.5698 13.7097 80.3498 13.2897 81.1598 12.8397C84.8498 10.9797 88.5698 12.2697 92.2898 12.7497C92.6798 12.8397 93.0398 12.8697 93.4298 12.8397C94.7198 13.6197 95.6798 14.5197 94.4198 16.0797C91.3298 18.1797 88.1498 18.5698 84.8498 16.4698Z" fill="#8B8B8B"/>
<path d="M52.6882 16.4399C52.5682 18.7799 47.3182 15.9899 48.9682 20.1599C47.1682 22.8899 44.4982 23.0999 41.6482 22.5899C41.1082 22.4099 40.6282 22.1099 40.1782 21.7199C39.3082 19.6499 41.8282 18.3599 41.4082 16.4099C41.4982 16.0199 41.5282 15.6299 41.5282 15.2399C45.1882 16.1099 49.1782 14.0099 52.6882 16.4399Z" fill="#787777"/>
<path d="M426.186 14.2498C425.496 12.5398 423.936 12.8998 422.586 12.7498C419.796 12.3898 420.726 10.7998 421.506 9.2998C425.526 10.4998 429.906 9.77979 433.836 11.5798C433.116 12.8398 431.196 13.2598 431.376 15.1498C429.576 15.0898 427.656 15.9298 426.186 14.2498Z" fill="#969696"/>
<path d="M105.697 83.19C105.487 80.82 104.137 80.34 102.367 81.6C100.747 82.74 98.9472 82.8 97.1772 83.07C97.2072 81.72 97.2672 80.34 95.8872 79.5C95.5272 78.9 95.5272 78.3 95.8872 77.7C98.1072 75.75 100.357 73.89 103.447 76.05C102.127 78.39 103.507 79.0199 105.487 79.6499C108.157 80.4899 108.847 81.81 105.697 83.19Z" fill="#DFDEDE"/>
<path d="M43.9556 163.35C46.5656 164.16 49.3556 164.01 52.1456 163.8C51.7556 167.37 47.4656 165.36 47.4956 168.45C45.7856 167.94 43.8656 170.73 42.2456 168.15C40.7456 165.78 42.2756 164.55 43.9556 163.35Z" fill="#838383"/>
<path d="M53.9453 136.47C56.0153 136.5 54.1853 129.18 58.7753 133.92C56.5253 135.84 58.5953 137.67 58.8353 139.56C59.0153 140.88 60.3053 142.56 58.3253 143.31C56.0753 144.15 55.6253 142.17 55.1153 140.61C54.6353 139.26 54.3353 137.85 53.9453 136.47Z" fill="#C9C8C8"/>
<path d="M17.9751 18.8699C16.3251 19.6799 14.6751 20.49 13.0251 21.33C12.7251 18.84 11.7051 17.58 8.88508 18.48C6.24508 19.35 3.54508 19.5899 1.95508 16.4399C7.26508 16.4699 12.6051 16.4999 17.9151 16.5299L17.9451 16.59C17.9451 17.37 17.9751 18.1199 17.9751 18.8699Z" fill="#DCDCDC"/>
<path d="M103.448 76.0499C100.718 75.9299 98.5584 77.5799 96.1584 78.4799C94.5684 79.1399 93.3084 79.1699 93.3384 76.9199C95.0484 75.7499 96.7284 74.5799 98.4384 73.3799C99.6684 72.9599 100.898 72.5099 102.098 72.0899C104.738 71.1599 105.608 72.0299 104.678 74.6699C104.258 75.1199 103.838 75.5699 103.448 76.0499Z" fill="#656464"/>
<path d="M515.586 89.5799C514.776 87.8999 513.276 88.2899 511.896 88.3199C512.526 87.0599 513.876 87.0299 514.956 86.5499C517.686 85.3199 521.526 81.1799 523.026 84.3899C524.286 87.0299 518.766 88.5299 515.586 89.5799Z" fill="#B5B4B4"/>
<path d="M104.678 74.6398C104.528 73.0798 103.478 72.4197 102.098 72.0597C105.158 69.8997 107.528 66.2998 112.598 67.4098C110.858 71.1298 107.228 72.3298 104.678 74.6398Z" fill="#9B9B9B"/>
<path d="M240.517 132.51C239.767 132.57 238.987 132.63 238.237 132.69C237.247 129.54 237.937 127.5 241.717 127.83C244.417 128.07 246.817 126.96 249.367 126.51C247.747 130.47 242.767 129.45 240.517 132.51Z" fill="#D6D6D6"/>
<path d="M256.655 79.2899C256.685 78.9599 256.745 78.6299 256.775 78.2999C259.505 77.6399 263.375 74.2799 264.695 76.9499C266.255 80.1599 260.765 80.4299 258.935 82.6199C258.455 83.1899 257.555 83.4299 256.865 83.8199V83.2499C255.305 81.9899 259.565 80.4899 256.655 79.2899Z" fill="#B7B7B7"/>
<path d="M81.1288 153.78C77.4088 153.81 73.6888 153.87 69.9388 153.9C64.4188 155.28 58.9288 156.42 53.7988 152.73L54.0688 152.31C61.1788 152.37 68.2888 152.4 75.3988 152.52C77.3788 152.58 79.5388 151.95 81.1288 153.78Z" fill="#DCDCDB"/>
<path d="M595.839 126.48C592.899 129.18 589.269 127.11 586.059 127.89C588.639 125.37 591.219 122.91 594.219 121.92C597.699 123.06 591.609 125.82 595.839 126.48Z" fill="#CAC9C9"/>
<path d="M380.587 169.83C380.467 167.7 382.358 166.62 383.048 164.91C385.298 165.33 387.908 163.08 390.128 166.17C387.758 167.85 384.128 167.82 383.048 171.09C382.238 170.67 381.397 170.25 380.587 169.83Z" fill="#E6E6E6"/>
<path d="M107.138 155.07C101.798 158.37 96.4279 154.77 91.0879 155.07C96.4579 152.55 101.798 153.63 107.138 155.07Z" fill="#B9B8B8"/>
<path d="M462.28 16.47C458.2 14.85 463.81 13.17 462.25 11.55C464.56 12.3 467.89 8.75999 468.82 11.43C469.87 14.52 465.25 13.62 463.63 15.24C463.18 15.69 462.73 16.08 462.28 16.47Z" fill="#DADAD9"/>
<path d="M18.4262 155.37C16.8962 155.64 15.8162 155.13 15.9962 153.57C16.2362 151.47 17.9462 151.23 19.6262 151.32C20.7662 151.38 22.5062 151.08 22.4462 152.7C22.3862 155.1 19.9862 154.86 18.4262 155.37Z" fill="#C4C4C4"/>
<path d="M93.3403 76.8901C93.8503 78.1801 95.0803 78.2101 96.1603 78.4501C96.0703 78.7801 95.9803 79.1401 95.8603 79.5001C93.2503 80.4001 90.6403 81.3002 88.0603 82.2602C86.1403 82.9802 84.7003 83.2801 85.9903 80.4301C88.4503 79.2601 90.8803 78.0601 93.3403 76.8901Z" fill="#8A8A8A"/>
<path d="M477.126 21.2699C475.176 18.8699 471.606 21.54 469.686 18.93C474.666 19.02 479.826 17.04 484.596 20.1C484.596 20.49 484.566 20.8799 484.566 21.2699C482.076 22.5599 479.586 22.1999 477.126 21.2699Z" fill="#D4D4D4"/>
<path d="M292.686 4.02014C289.926 5.52014 287.256 7.35017 283.956 5.46017C281.946 5.43017 279.936 5.43016 277.926 5.40016C282.636 2.85016 287.796 4.71014 292.686 4.02014Z" fill="#B3B3B3"/>
<path d="M27.9101 43.6499C29.5601 43.8599 30.1301 44.6399 28.7201 45.8099C27.2801 47.0099 25.8701 48.8399 23.6201 47.6399C23.4101 47.5199 24.0101 45.8699 24.2201 44.9099C25.4501 44.5199 26.6801 44.0999 27.9101 43.6499Z" fill="#C0C0BF"/>
<path d="M253.21 156.27C250.27 158.37 247.39 156.42 244.51 156.15C247.42 153.63 250.33 153.75 253.21 156.27Z" fill="#EBEAEA"/>
<path d="M282.52 114.69C284.89 111.48 285.94 109.32 288.82 109.56C289.15 109.59 289.78 110.55 289.66 110.82C288.61 113.58 285.94 113.07 282.52 114.69Z" fill="#C0BFBF"/>
<path d="M92.3155 12.7197C88.5955 12.7497 84.8755 12.7797 81.1855 12.8097C84.4855 8.78972 88.6856 12.2697 92.3456 11.4597C92.3156 11.9097 92.3155 12.2997 92.3155 12.7197Z" fill="#BAB9B9"/>
<path d="M443.765 11.6697C440.345 13.9497 437.045 12.1797 433.715 11.3697C437.135 8.90972 440.405 11.6997 443.765 11.6697Z" fill="#BBBABA"/>
<path d="M557.556 46.2298C556.476 45.9598 554.796 46.5598 554.556 44.9998C554.376 43.6198 555.876 43.6798 556.806 43.7398C558.216 43.8298 560.616 43.4698 558.756 46.2298L558.156 46.1998L557.556 46.2298Z" fill="#D0CFCF"/>
<path d="M589.715 37.4996C595.115 37.0196 600.275 38.1896 605.375 39.8696C606.695 40.3196 608.585 40.0496 608.615 41.9396C608.645 43.4996 607.115 44.2797 605.705 44.7297C599.165 46.7397 592.535 46.2896 585.905 46.1096C585.515 42.8096 589.355 41.7896 588.365 38.9396C588.425 38.0996 589.295 37.9796 589.715 37.4996Z" fill="#C6C5C5"/>
<path d="M589.718 37.4999C589.268 37.9799 588.818 38.4598 588.338 38.9398C577.748 37.0498 567.128 35.4898 556.298 36.2698C556.148 35.9998 555.998 35.7599 555.848 35.4899C556.058 34.9199 556.418 34.4998 556.928 34.1698C561.728 32.8798 566.588 33.1799 571.538 33.3299C571.148 32.0699 569.168 31.7099 569.678 29.9999C571.478 28.3799 573.428 27.0598 576.038 27.5398C578.108 28.7698 580.208 30.0298 582.278 31.2598C580.808 31.5598 578.528 30.4498 577.988 32.2798C577.418 34.2598 579.818 34.6199 581.168 35.0699C583.988 35.9999 586.598 37.6799 589.718 37.4999Z" fill="#A4A4A4"/>
<path d="M535.18 29.91C539.74 28.14 544.33 28.38 548.95 29.73C548.44 31.77 545.2 31.32 545.14 33.78C544.12 38.04 541.3 38.97 537.25 38.46C535.06 38.19 532.75 38.73 530.5 38.91C530.23 38.91 529.96 38.91 529.72 38.94C528.37 38.85 527.05 38.73 526.51 37.17C528.88 35.49 531.61 36.3 534.19 36.27C536.83 36.21 537.88 35.13 537.73 32.61C537.43 31.2 535.54 31.29 535.18 29.91Z" fill="#D0CFCF"/>
<path d="M545.168 33.7797C544.178 33.1797 542.588 32.4897 543.188 31.3197C544.388 28.9797 546.998 30.1797 548.978 29.6997C550.238 29.9097 551.498 30.1197 552.758 30.3297C554.078 31.7397 557.768 31.1097 556.538 34.7397L556.088 35.1597C554.468 35.0997 553.058 35.7297 551.618 36.4197C548.798 37.7397 547.268 36.3897 546.338 33.8397C545.948 33.8097 545.558 33.7797 545.168 33.7797Z" fill="#A4A4A4"/>
<path d="M530.526 38.9397C529.656 42.0597 536.226 40.6197 533.916 43.8897C532.296 46.1997 528.906 44.8197 526.326 44.8197C524.436 44.8197 522.786 43.8897 521.436 42.5397L521.766 42.4497C523.686 39.1797 526.626 38.2197 530.226 38.7297L530.526 38.9397Z" fill="#D0CFCF"/>
<path d="M553.056 44.1599C547.236 47.8499 542.616 43.7699 538.266 45.4799C537.726 45.6899 536.916 44.5799 537.126 43.6799C537.426 42.3899 538.626 42.3599 539.586 42.4799C543.576 42.8999 547.566 43.4699 553.056 44.1599Z" fill="#D0CFCF"/>
<path d="M542.74 46.9198C544.6 47.7598 546.79 48.4198 546.82 50.8498C546.82 52.2898 545.77 53.8798 544.06 53.2498C542.17 52.5298 539.53 51.8698 539.65 49.1698C539.71 47.9098 541 46.7398 542.74 46.9198Z" fill="#F5F4F5"/>
<path d="M475.837 54.7197C471.877 57.3297 468.427 56.9697 464.887 55.7397C469.387 51.8997 469.387 51.8997 475.837 54.7197Z" fill="#F5F4F5"/>
<path d="M546.367 33.8699C548.107 35.6099 549.817 37.3499 552.337 34.8599C553.657 33.5399 554.917 34.4699 556.117 35.2199C556.207 35.5799 556.267 35.9399 556.327 36.2999C552.847 36.1199 548.047 41.3699 546.367 33.8699Z" fill="#D0CFCF"/>
<path d="M561.218 111.75C561.218 112.98 561.248 114.21 561.248 115.44C562.928 118.26 561.968 120.63 560.018 122.85C557.798 124.8 555.008 125.67 552.218 125.97C548.978 126.3 546.368 124.86 546.488 121.26C546.758 113.1 547.178 104.97 547.928 96.8398C548.198 93.8098 550.508 91.7698 553.538 90.9898C556.328 90.2698 558.788 90.5698 560.288 93.5698C560.708 94.4098 561.728 94.9498 562.448 95.6398C562.448 97.2898 562.478 98.9398 562.478 100.59C563.378 104.49 563.708 108.27 561.218 111.75Z" fill="#F5F4F5"/>
<path d="M560.05 122.85C559.63 120.24 560.86 117.9 561.28 115.44C564.88 116.1 563.83 118.59 563.92 121.08C564.13 127.17 561.79 133.89 567.46 138.93C568.09 143.07 566.5 146.97 566.02 150.96C565.87 152.16 565.18 153.42 563.62 153.09C562.36 152.82 562.27 151.47 562.6 150.6C564.55 145.38 562.42 140.82 560.86 135.99C559.48 131.79 559.96 127.26 560.05 122.85Z" fill="#D6D6D6"/>
<path d="M569.945 138.93C571.355 138.03 571.115 136.59 571.145 135.21C570.515 132.24 571.775 129.9 573.605 127.77C576.965 125.55 577.505 127.44 577.085 130.26C576.845 131.97 575.285 133.65 577.355 135.21C579.275 141.21 574.145 140.94 570.995 141.87C569.735 142.23 570.095 140.04 569.945 138.93Z" fill="#C7C6C6"/>
<path d="M547.747 164.76C542.827 166.98 537.847 166.68 532.867 164.97C537.787 162.93 542.737 163.02 547.747 164.76Z" fill="#ADADAD"/>
<path d="M180.13 27.5996C182.17 27.5096 183.55 26.3096 184.78 24.8696C184.96 25.0496 185.14 25.1997 185.32 25.3797C187.09 26.7597 186.79 29.0096 187.78 31.1696C191.32 28.8896 194.92 28.5897 198.49 30.8997L198.73 31.4697C190.69 36.8097 182.38 36.3897 173.92 32.5797C172.15 31.5297 171.07 30.1197 172.33 28.0797C173.26 26.5797 174.76 26.9397 176.17 27.2997C177.49 27.6597 178.69 28.8896 180.13 27.5996Z" fill="#939393"/>
<path d="M142.778 23.7597C145.298 24.3597 148.208 22.9497 150.428 25.1697C144.758 27.3297 138.158 26.1897 132.998 30.0897C131.678 31.3497 131.168 35.3997 128.258 31.2897C127.508 30.2097 125.408 30.0897 123.878 29.5197C123.488 27.0597 126.338 27.9597 126.998 26.5797C130.418 22.7397 134.678 22.6797 139.238 23.7897C140.408 23.7597 141.578 23.7597 142.778 23.7597Z" fill="#808080"/>
<path d="M180.128 27.5999C179.288 28.7699 178.178 28.8299 176.948 28.4399C171.848 26.8499 172.388 29.3399 173.948 32.5499C171.518 32.5499 168.248 32.4299 168.518 29.5199C168.788 26.5499 172.088 26.0699 174.848 26.3999C176.618 26.6399 178.358 27.2099 180.128 27.5999Z" fill="#C5C5C4"/>
<path d="M261.789 158.73C262.179 157.98 262.599 157.23 262.989 156.45C270.399 156.33 277.839 156.21 285.249 156.09C286.419 159.75 281.889 157.74 281.499 159.87C274.959 158.85 268.209 161.55 261.789 158.73Z" fill="#939393"/>
<path d="M267.04 169.65C266.62 167.52 268.54 166.56 269.32 165C270.94 164.97 272.56 164.91 274.21 164.88C275.32 165.3 276.43 165.72 277.54 166.17C278.32 166.47 279.01 166.89 278.92 167.91C278.83 169.23 277.87 169.53 276.82 169.56C273.55 169.62 270.28 169.62 267.04 169.65Z" fill="#7E7E7E"/>
<path d="M385.566 157.56C388.146 158.52 392.286 156.18 392.916 161.13C390.066 161.07 387.246 160.98 384.396 160.92C384.786 159.81 385.176 158.7 385.566 157.56Z" fill="#C0C0C0"/>
<path d="M477.128 21.2698C479.618 19.8598 482.108 19.9798 484.568 21.2998C485.318 21.3898 486.038 21.4798 486.788 21.5698C491.258 23.0998 496.118 21.4498 500.558 23.2798C502.208 23.3698 503.318 24.1798 503.198 25.8598C503.078 27.5398 501.668 28.0498 500.168 28.1998C498.128 28.3798 496.178 27.8698 494.168 27.7498C492.578 28.0798 491.048 27.4498 489.938 27.5698C491.558 28.0798 493.748 27.7798 495.878 28.1098C498.278 28.0498 500.648 28.8898 503.078 28.1698C504.638 27.6898 506.648 27.6898 506.798 29.8798C506.918 31.5898 505.508 32.8798 503.858 33.3598C501.458 34.0498 499.118 33.2098 496.808 32.6698C493.388 32.3098 489.968 31.8598 486.518 31.6498C483.848 31.4698 481.718 31.1998 481.898 27.5998C482.048 24.5098 478.508 24.5398 477.068 22.7098C477.098 22.2298 477.098 21.7498 477.128 21.2698Z" fill="#A3A3A3"/>
<path d="M494.436 26.3698C496.596 26.5798 498.966 27.4198 500.916 26.8498C504.156 25.8898 501.696 24.7498 500.556 23.8198C500.136 23.5498 500.016 23.2798 500.166 23.0098C500.316 22.7398 500.436 22.6198 500.586 22.6198C504.726 19.6198 508.806 22.4998 512.916 22.6798C513.876 25.9798 512.226 28.7698 511.116 31.6798C508.296 35.6998 504.996 37.3498 500.646 33.8398C499.296 33.6898 497.826 33.9298 496.866 32.6398C499.986 31.9798 504.036 34.0198 506.226 28.8898C502.026 29.9698 498.246 30.4498 494.556 28.9498C493.776 28.1098 493.686 27.2698 494.436 26.3698Z" fill="#BDBCBC"/>
<path d="M556.54 34.77C556.54 32.22 552.58 33.06 552.76 30.36C555.94 29.31 559.6 31.38 562.54 28.83C563.77 28.53 565 30.27 566.26 28.86C567.94 27.6 568.96 28.35 569.68 30C570.58 32.82 575.92 30.75 575.08 33.42C574.06 36.72 570.16 34.5 567.46 34.53C563.83 34.59 560.17 34.71 556.54 34.77Z" fill="#7D7D7D"/>
<path d="M510.549 31.3499C510.009 28.1099 511.569 25.44 512.919 22.71C516.999 23.55 519.069 27.5999 522.879 28.9199C520.959 31.2299 516.699 28.7099 515.469 32.4899C513.999 39.3299 509.409 41.0699 503.109 39.9899C501.789 39.7199 499.779 40.7399 499.299 39.2399C498.819 37.7699 500.709 37.71 501.849 37.47C504.849 35.58 510.309 37.1699 510.549 31.3499Z" fill="#D4D4D4"/>
<path d="M515.435 32.4899C513.815 32.0099 512.555 31.3199 514.715 29.9099C517.205 28.2599 520.085 28.9199 522.845 28.9199C523.655 29.4299 524.495 29.9699 525.785 30.7799C522.125 31.4099 518.765 31.9499 515.435 32.4899Z" fill="#AEAEAE"/>
<path d="M500.589 22.6499C500.619 23.0399 500.619 23.4299 500.559 23.8199C496.149 21.9599 490.959 24.9299 486.789 21.5699C491.439 21.2999 496.059 21.0899 500.589 22.6499Z" fill="#D4D4D4"/>
<path d="M530.199 38.6997C527.379 39.9297 524.559 41.1897 521.739 42.4197C521.619 39.1197 523.959 38.0697 526.509 37.1997C527.829 37.4997 529.419 37.0797 530.199 38.6997Z" fill="#A1A1A1"/>
<path d="M535.177 29.9099C536.347 30.5099 539.797 28.9499 537.697 32.6099C535.477 32.1899 532.777 33.5999 531.127 30.9299C532.327 29.6399 533.857 30.2399 535.177 29.9099Z" fill="#B0B0B0"/>
<path d="M379.357 13.9499C380.167 13.1399 380.137 10.5599 381.967 11.8799C384.487 13.7099 389.167 13.8899 388.147 18.8999C385.987 18.7499 384.697 16.0799 381.697 17.4899C379.717 18.4499 379.777 15.4499 379.357 13.9499Z" fill="#DDDCDC"/>
<path d="M449.828 26.3098C456.128 18.6598 459.698 18.0898 464.768 23.9698C459.878 25.5298 455.258 28.4698 449.828 26.3098Z" fill="#D7D7D7"/>
<path d="M510.547 31.3499C511.777 36.7199 510.427 38.3699 505.477 37.6799C504.277 37.4999 503.047 37.5299 501.817 37.4699C501.427 36.2699 501.007 35.0699 500.617 33.8399C504.457 35.0999 507.607 33.6899 510.547 31.3499Z" fill="#E0E0E0"/>
<path d="M571.088 107.25C573.488 112.92 575.018 117.27 574.778 122.07C574.718 123.12 574.358 124.23 573.188 124.41C571.958 124.59 571.358 123.51 571.298 122.49C570.968 117.96 568.718 113.49 571.088 107.25Z" fill="#D6D6D6"/>
<path d="M573.605 127.77C574.145 130.71 572.825 133.02 571.145 135.21C570.965 133.08 566.075 137.76 567.995 133.17C568.955 130.83 567.335 124.89 573.605 127.77Z" fill="#D6D6D6"/>
<path d="M561.219 111.75C561.459 108 560.439 104.13 562.509 100.62C566.289 105.18 565.929 108.36 561.219 111.75Z" fill="#D6D6D6"/>
<path d="M84.6993 29.0998C74.7993 28.2298 64.8993 27.3598 55.0293 26.4898C56.4693 24.5998 58.8393 24.6598 60.4293 25.1698C62.9793 25.9798 62.1693 23.2498 63.4593 23.0098C68.9193 22.6798 74.3793 21.9598 79.7493 23.5798C81.4893 24.6298 83.7693 24.5998 85.1793 26.3098C85.5993 27.3298 85.5393 28.2898 84.6993 29.0998Z" fill="#969696"/>
<path d="M41.406 16.3799C44.406 18.9299 41.466 19.8599 40.116 21.2099C38.706 23.4599 35.976 22.5299 34.116 23.7299C31.386 22.3499 28.386 22.8599 25.536 22.4699C25.446 20.1299 20.346 23.2499 21.876 19.1399C28.476 18.8699 35.136 18.9599 41.406 16.3799Z" fill="#656564"/>
<path d="M34.1172 23.7598C35.7372 22.0498 37.8672 21.4798 40.1172 21.2398L40.5372 21.5998C43.7472 22.2898 46.9872 23.3998 49.7472 20.5198C51.4872 21.2098 53.2572 21.9298 54.9972 22.6198C56.0472 23.9698 57.4872 23.9398 58.9872 23.7598C60.2772 22.8598 61.4472 22.8598 62.4972 24.1198C62.4972 24.8398 65.4072 25.5598 62.7372 26.1598C60.2772 26.7298 57.6072 26.3998 54.9972 26.4898C48.0372 25.5898 41.0772 24.6598 34.1172 23.7598Z" fill="#787777"/>
<path d="M84.9358 26.4897C83.2258 26.1597 81.2158 26.9397 79.9258 25.1097C82.6858 22.7097 87.0358 24.9297 89.5558 21.7797C91.3858 21.3597 93.2158 21.3297 95.0458 21.6897C96.9058 23.7597 98.8558 25.6497 101.886 25.7997C103.446 27.4197 102.966 29.2797 102.546 31.1697C102.306 31.2897 102.036 31.4097 101.796 31.5297C96.5458 30.7497 91.1458 32.2797 86.0158 30.2097C88.9858 27.4497 92.3158 28.4997 95.6458 29.3997C96.4258 29.4597 95.8558 28.1397 95.8858 28.9797C95.8858 29.2797 95.6758 29.4597 95.3758 29.2797C92.1058 27.4197 88.0858 28.5897 84.9358 26.4897Z" fill="#AFAFAF"/>
<path d="M84.9353 26.49C89.4353 25.53 93.6953 25.53 97.3253 30.18C93.3953 30.18 89.7053 30.18 85.9853 30.18C85.5653 29.82 85.1153 29.46 84.6953 29.07C84.7553 28.23 84.8453 27.36 84.9353 26.49Z" fill="#828282"/>
<path d="M345.965 159.9C349.235 154.8 353.495 158.31 357.275 157.92C357.335 158.58 357.395 159.24 357.455 159.9C353.645 159.9 349.805 159.9 345.965 159.9Z" fill="#AFAEAE"/>
<path d="M328.54 160.02C328.21 158.4 326.05 157.05 327.64 155.25C328.18 154.62 330.04 154.59 330.25 155.55C330.58 157.17 332.11 159.72 328.54 160.02Z" fill="#A6A5A5"/>
<path d="M292.598 16.3497C293.228 13.6497 293.618 10.8597 294.548 8.24975C296.258 3.50975 300.848 5.63975 304.118 4.91975C305.348 4.64975 305.258 7.67974 305.498 9.17974C305.798 11.1297 304.088 11.4598 302.648 11.4898C298.418 11.5498 297.338 13.0198 300.218 16.4698C297.638 16.4398 295.118 16.3797 292.598 16.3497Z" fill="#D2D2D2"/>
<path d="M323.646 9.05995C324.696 10.56 326.046 10.2899 327.426 9.65994C329.646 8.66994 330.906 9.38992 331.296 11.7899C330.816 12.6899 330.156 13.5299 329.856 14.4899C329.376 15.9599 328.386 16.4999 327.036 16.2599C324.516 15.8099 327.066 14.3999 326.616 13.5899C325.956 12.4499 324.846 13.02 323.916 13.05C323.016 11.76 322.086 10.4399 321.186 9.14995C321.516 8.75995 321.906 8.51996 322.416 8.45996C322.896 8.48996 323.316 8.69995 323.646 9.05995Z" fill="#A5A4A4"/>
<path d="M76.15 166.17C71.92 165.15 67.75 165.96 63.64 166.8C61.84 167.16 60.04 167.37 59.56 165.42C59.05 163.38 61.39 163.17 62.47 163.2C67 163.26 71.62 161.46 76.12 163.56C76.84 164.43 76.93 165.3 76.15 166.17Z" fill="#ADADAD"/>
<path d="M76.1472 166.17C76.1472 165.3 76.1172 164.43 76.1172 163.56C81.3072 160.2 87.0372 164.88 92.2872 162.45C94.1772 163.17 94.7472 164.31 93.3972 166.05C87.6372 165.06 81.8772 166.02 76.1472 166.17Z" fill="#8B8B8B"/>
<path d="M53.7948 152.76C59.0448 155.1 64.5948 152.97 69.9348 153.93C71.1648 155.73 73.4749 154.38 75.3649 155.94C73.2049 156.12 71.5248 156.3 69.8148 156.45C64.6248 156.33 59.4348 156.21 54.2748 156.12C53.2248 156.09 52.1149 156.18 51.9649 154.89C51.8749 153.75 52.8348 153.18 53.7948 152.76Z" fill="#9D9D9D"/>
<path d="M256.656 79.2898C261.186 80.3998 256.686 81.9298 256.836 83.2498C254.676 84.3598 252.546 85.4698 250.386 86.5198C249.276 87.0598 247.866 87.4798 247.296 86.0398C247.026 85.3498 247.926 84.2698 248.286 83.3398C249.006 81.7798 250.206 80.9698 251.886 80.8198C253.506 80.3098 255.066 79.7998 256.656 79.2898Z" fill="#8F8F8F"/>
<path d="M251.917 80.8199C251.047 82.1399 250.027 83.2499 248.317 83.3399C246.127 81.3299 244.597 78.7499 247.987 77.0699C250.687 75.7499 251.437 78.6299 251.917 80.8199Z" fill="#F5F4F5"/>
<path d="M161.678 159.87C164.528 159.87 167.378 159.87 170.228 159.87C170.048 160.77 172.958 161.88 170.588 162.21C167.618 162.63 164.648 162.93 161.708 163.53C159.968 163.89 157.328 163.74 157.328 161.58C157.328 158.91 160.148 160.41 161.678 159.87Z" fill="#D9D9D9"/>
<path d="M322.447 8.87988C322.027 8.96988 321.607 9.05984 321.157 9.11984C320.557 9.05984 319.807 9.20987 319.387 8.90987C317.227 7.37987 312.607 11.3999 312.667 7.16986C312.697 3.59986 317.377 6.17985 319.777 5.18985C320.977 4.70985 322.177 4.61985 322.477 6.35985C323.197 7.22985 323.167 8.06988 322.447 8.87988Z" fill="#888788"/>
<path d="M322.445 8.8799C322.475 8.0699 322.475 7.22988 322.505 6.41988C323.705 5.63988 324.905 4.85988 326.135 4.07988C327.185 3.86988 328.475 2.30986 329.225 3.77986C330.125 5.51986 327.725 6.29987 327.335 7.76987C326.105 8.18987 324.905 8.63989 323.675 9.05989C323.255 8.99989 322.835 8.9399 322.445 8.8799Z" fill="#858585"/>
<path d="M102.547 31.1398C100.717 29.6698 101.257 28.1398 102.457 26.5798C102.967 24.8398 106.447 25.2898 105.427 22.4398C105.457 21.1798 106.027 20.2798 107.137 19.7398C109.297 19.2898 111.097 20.6398 113.137 20.8798C116.197 21.4498 119.257 22.0198 120.577 25.4098C120.607 26.5198 120.637 27.6598 120.667 28.7698C118.957 30.5398 116.887 30.7798 114.607 30.1498C110.857 33.5998 106.537 30.6298 102.547 31.1398Z" fill="#6D6C6C"/>
<path d="M120.576 25.4398C117.786 24.3898 115.416 22.0198 112.116 22.4698C110.106 18.0298 110.676 17.4898 116.916 17.8198C119.376 18.7498 122.436 17.8798 124.416 20.2798C129.006 22.9198 134.916 19.9498 139.206 23.7898C135.126 24.7198 131.046 25.6498 126.966 26.5798C124.836 26.1898 122.706 25.7998 120.576 25.4398Z" fill="#EEEEEE"/>
<path d="M114.637 30.1798C116.437 28.7398 118.597 28.9198 120.697 28.7998C121.597 29.6398 122.497 31.4998 121.297 31.5298C119.137 31.5898 116.047 34.1098 114.637 30.1798Z" fill="#C7C7C7"/>
<path d="M94.5951 15.1198C94.2051 14.3698 93.8451 13.5898 93.4551 12.8398C101.855 10.5598 109.265 15.1198 117.155 16.2898C116.525 17.6398 115.205 17.9099 113.975 18.2999C109.355 19.0199 104.765 18.5398 100.175 18.0898C97.9551 17.8498 95.7651 17.3998 94.5951 15.1198Z" fill="#BAB9B9"/>
<path d="M114.549 17.7298C115.059 16.5898 116.169 16.4998 117.159 16.2598C119.559 16.3798 121.959 16.5298 124.359 16.5598C125.949 16.5898 128.259 16.1098 128.469 17.9698C128.739 20.5498 126.009 19.8298 124.419 20.2498C121.899 19.5298 118.989 21.2998 116.679 19.0498C116.379 17.9998 114.969 18.5998 114.549 17.7298Z" fill="#9A9A9A"/>
<path d="M198.488 30.8999C193.388 28.4999 189.608 33.5399 183.848 33.5999C186.608 30.7499 184.778 28.0199 185.288 25.4099C187.118 24.2999 190.088 27.6899 191.228 23.8799C192.608 27.2699 197.678 26.9099 198.488 30.8999Z" fill="#6E6E6E"/>
<path d="M17.9176 16.5599C16.3276 14.6099 14.1376 15.6599 12.1876 15.3299C10.8976 15.1199 8.88758 15.7499 8.73758 13.7999C8.58758 11.9699 10.3276 11.6999 11.7976 11.6999C15.6976 11.6699 19.5976 11.6999 25.1176 11.6999C22.0276 14.4899 20.5876 16.3799 17.9476 16.6199L17.9176 16.5599Z" fill="#9A9A9A"/>
<path d="M212.255 25.0499C208.955 24.5999 209.195 23.3099 211.745 22.1399C213.845 21.1799 216.215 20.8199 218.465 20.1599C219.875 23.2799 219.995 25.5299 215.465 24.2699C214.205 23.9399 213.125 23.9399 212.255 25.0499Z" fill="#CBCACA"/>
<path d="M114.549 17.7297C115.419 17.9097 116.379 17.9697 116.709 19.0797C114.579 19.4097 110.649 17.2497 112.119 22.4697C110.469 21.7197 108.789 20.9697 107.139 20.2197C102.789 22.4997 98.5893 23.1296 94.7793 19.1096C89.3193 18.6896 83.6793 19.7396 77.5293 17.6996C80.4393 15.9596 82.7493 16.9797 84.8493 16.4697C88.2093 16.9497 91.4193 16.1996 94.5993 15.1196C101.139 16.7396 107.829 17.2797 114.549 17.7297Z" fill="#DADAD9"/>
<path d="M89.7089 22.7697C87.2189 26.7597 83.2589 24.6597 79.9289 25.1097C74.2289 22.9497 68.3189 24.2397 62.4989 24.1197C61.3289 23.9997 60.1589 23.8797 58.9889 23.7597C57.2789 19.8597 60.7289 21.3597 61.8389 21.3897C69.9689 21.6297 78.0989 22.1097 86.1989 22.4997C87.4289 21.6897 88.6289 21.5997 89.7089 22.7697Z" fill="#E1E0E0"/>
<path d="M89.7053 22.7701C88.5353 22.6801 87.3653 22.5601 86.1953 22.4701C87.6353 17.7601 92.6153 21.9901 94.7753 19.0801C98.8853 19.4401 102.995 19.8301 107.135 20.1901C106.745 20.9701 106.355 21.7501 105.965 22.5301C102.755 25.2601 99.4553 25.1401 96.0653 22.8901C93.9353 22.8601 91.8053 22.8301 89.7053 22.7701Z" fill="#898989"/>
<path d="M54.9382 21.4198C53.8882 19.8898 54.6082 19.1098 56.1682 19.0498C59.0482 18.9598 61.9282 19.0198 64.8382 19.0198C65.0482 17.1598 62.7682 17.8198 62.5882 16.5298C63.6082 16.5598 64.6582 16.6198 65.6782 16.5898C66.9682 16.5898 68.3782 16.6198 68.3782 18.2998C68.4082 20.0098 66.8782 19.8598 65.6782 20.0398C62.1082 20.6098 58.2382 18.8398 54.9382 21.4198Z" fill="#787777"/>
<path d="M342.278 7.9499C338.768 6.9299 339.728 5.3099 342.128 4.5299C343.568 4.0499 345.488 4.9799 347.198 5.2799C347.408 7.8899 347.408 7.8899 342.278 7.9499Z" fill="#808081"/>
<path d="M569.65 29.9999C568.51 29.6099 567.37 29.2499 566.23 28.8599C566.41 26.2499 563.53 26.9099 562.48 25.4999C567.04 24.1199 571.48 26.7 575.89 25.38C575.95 26.1 575.98 26.8199 576.04 27.5399C574.15 28.9499 572.38 30.6599 569.65 29.9999Z" fill="#838383"/>
<path d="M49.7491 20.5199C50.8291 22.9499 50.0791 24.3299 47.4391 23.5499C45.1591 22.8599 42.5191 23.3099 40.5391 21.5999C43.5091 21.9299 46.1791 20.7299 48.9691 20.1599C49.1791 20.3699 49.4491 20.4899 49.7491 20.5199Z" fill="#CBCBCB"/>
<path d="M494.435 26.3696C494.465 27.2396 494.495 28.1096 494.525 28.9496C490.775 30.4496 488.015 28.4096 483.695 26.3696C488.345 26.3696 491.375 26.3696 494.435 26.3696Z" fill="#CBCACA"/>
<path d="M96.0378 22.8898C99.3378 22.7698 102.638 22.6498 105.938 22.5298C107.138 22.7698 108.578 22.8598 108.728 24.3898C108.848 25.5898 107.738 26.0998 106.718 26.2498C105.308 26.4598 103.868 26.4898 102.458 26.5798C100.658 24.7798 94.2378 30.9598 96.0378 22.8898Z" fill="#C9C8C8"/>
</svg>
